<mxfile host="app.diagrams.net" modified="2022-12-12T08:38:00.196Z" agent="5.0 (Windows NT 10.0; Win64; x64) AppleWebKit/537.36 (KHTML, like Gecko) Chrome/108.0.0.0 Safari/537.36" etag="bDpuwjVnD7LYTJfOKC32" version="20.6.0" type="github">
  <diagram id="frlQJ-Npt1x2va9xqSdP" name="Pagina-1">
    <mxGraphModel dx="633" dy="508" grid="1" gridSize="10" guides="1" tooltips="1" connect="1" arrows="1" fold="1" page="1" pageScale="1" pageWidth="827" pageHeight="1169" math="0" shadow="0">
      <root>
        <mxCell id="0" />
        <mxCell id="1" parent="0" />
        <mxCell id="yGzMHYDaNf_yrKZ207rC-1" style="edgeStyle=orthogonalEdgeStyle;shape=link;rounded=0;orthogonalLoop=1;jettySize=auto;html=1;exitX=0.5;exitY=1;exitDx=0;exitDy=0;labelBackgroundColor=#FCE7CD;strokeColor=#23445D;" parent="1" source="yGzMHYDaNf_yrKZ207rC-2" edge="1">
          <mxGeometry relative="1" as="geometry">
            <mxPoint x="931.25" y="710" as="targetPoint" />
          </mxGeometry>
        </mxCell>
        <mxCell id="yGzMHYDaNf_yrKZ207rC-2" value="ELEMENTO" style="rounded=0;whiteSpace=wrap;html=1;fillColor=#182E3E;strokeColor=#FFFFFF;fontColor=#FFFFFF;" parent="1" vertex="1">
          <mxGeometry x="876.25" y="620" width="110" height="50" as="geometry" />
        </mxCell>
        <mxCell id="yGzMHYDaNf_yrKZ207rC-3" value="ARTICOLO_SCIENTIFICO" style="rounded=0;whiteSpace=wrap;html=1;fillColor=#182E3E;strokeColor=#FFFFFF;fontColor=#FFFFFF;" parent="1" vertex="1">
          <mxGeometry x="302.5" y="762.73" width="160" height="80" as="geometry" />
        </mxCell>
        <mxCell id="yGzMHYDaNf_yrKZ207rC-4" value="LIBRO" style="rounded=0;whiteSpace=wrap;html=1;fillColor=#182E3E;strokeColor=#FFFFFF;fontColor=#FFFFFF;" parent="1" vertex="1">
          <mxGeometry x="1080.42" y="778.73" width="115" height="50" as="geometry" />
        </mxCell>
        <mxCell id="yGzMHYDaNf_yrKZ207rC-5" value="Titolo" style="ellipse;whiteSpace=wrap;html=1;fillColor=#182E3E;strokeColor=#FFFFFF;fontColor=#FFFFFF;" parent="1" vertex="1">
          <mxGeometry x="756.25" y="550" width="60" height="40" as="geometry" />
        </mxCell>
        <mxCell id="yGzMHYDaNf_yrKZ207rC-6" value="" style="endArrow=none;html=1;rounded=0;exitX=1;exitY=1;exitDx=0;exitDy=0;labelBackgroundColor=#FCE7CD;strokeColor=#23445D;entryX=0;entryY=0;entryDx=0;entryDy=0;" parent="1" source="yGzMHYDaNf_yrKZ207rC-5" target="yGzMHYDaNf_yrKZ207rC-2" edge="1">
          <mxGeometry width="50" height="50" relative="1" as="geometry">
            <mxPoint x="886.25" y="600" as="sourcePoint" />
            <mxPoint x="936.25" y="550" as="targetPoint" />
          </mxGeometry>
        </mxCell>
        <mxCell id="yGzMHYDaNf_yrKZ207rC-7" value="AnnoPubblicazione" style="ellipse;whiteSpace=wrap;html=1;fillColor=#182E3E;strokeColor=#FFFFFF;fontColor=#FFFFFF;" parent="1" vertex="1">
          <mxGeometry x="806.25" y="520" width="120" height="45.58" as="geometry" />
        </mxCell>
        <mxCell id="yGzMHYDaNf_yrKZ207rC-8" value="" style="endArrow=none;html=1;rounded=0;entryX=0.5;entryY=1;entryDx=0;entryDy=0;labelBackgroundColor=#FCE7CD;strokeColor=#23445D;exitX=0.25;exitY=0;exitDx=0;exitDy=0;" parent="1" source="yGzMHYDaNf_yrKZ207rC-2" target="yGzMHYDaNf_yrKZ207rC-7" edge="1">
          <mxGeometry width="50" height="50" relative="1" as="geometry">
            <mxPoint x="926.25" y="620" as="sourcePoint" />
            <mxPoint x="976.25" y="570" as="targetPoint" />
          </mxGeometry>
        </mxCell>
        <mxCell id="yGzMHYDaNf_yrKZ207rC-9" value="Autore" style="ellipse;shape=doubleEllipse;whiteSpace=wrap;html=1;fillColor=#182E3E;strokeColor=#FFFFFF;fontColor=#FFFFFF;" parent="1" vertex="1">
          <mxGeometry x="1026.25" y="635.5799999999999" width="100" height="60" as="geometry" />
        </mxCell>
        <mxCell id="yGzMHYDaNf_yrKZ207rC-10" value="" style="endArrow=none;html=1;rounded=0;labelBackgroundColor=#FCE7CD;strokeColor=#23445D;entryX=0.5;entryY=1;entryDx=0;entryDy=0;" parent="1" source="yGzMHYDaNf_yrKZ207rC-4" target="yGzMHYDaNf_yrKZ207rC-9" edge="1">
          <mxGeometry width="50" height="50" relative="1" as="geometry">
            <mxPoint x="986.25" y="620" as="sourcePoint" />
            <mxPoint x="1051.25" y="710" as="targetPoint" />
          </mxGeometry>
        </mxCell>
        <mxCell id="yGzMHYDaNf_yrKZ207rC-11" value="Nome" style="ellipse;whiteSpace=wrap;html=1;fillColor=#182E3E;strokeColor=#FFFFFF;fontColor=#FFFFFF;" parent="1" vertex="1">
          <mxGeometry x="669.67" y="49.99999999999997" width="63.16" height="31.79" as="geometry" />
        </mxCell>
        <mxCell id="yGzMHYDaNf_yrKZ207rC-12" value="" style="endArrow=none;html=1;rounded=0;exitX=0.5;exitY=1;exitDx=0;exitDy=0;labelBackgroundColor=#FCE7CD;strokeColor=#23445D;" parent="1" source="yGzMHYDaNf_yrKZ207rC-11" target="yGzMHYDaNf_yrKZ207rC-93" edge="1">
          <mxGeometry width="50" height="50" relative="1" as="geometry">
            <mxPoint x="741.0799999999999" y="64.15999999999997" as="sourcePoint" />
            <mxPoint x="685.6427253755063" y="122.99607209926091" as="targetPoint" />
          </mxGeometry>
        </mxCell>
        <mxCell id="yGzMHYDaNf_yrKZ207rC-13" value="Cognome" style="ellipse;whiteSpace=wrap;html=1;fillColor=#182E3E;strokeColor=#FFFFFF;fontColor=#FFFFFF;" parent="1" vertex="1">
          <mxGeometry x="737.2500000000001" y="71.1" width="80" height="37.11" as="geometry" />
        </mxCell>
        <mxCell id="yGzMHYDaNf_yrKZ207rC-14" value="" style="endArrow=none;html=1;rounded=0;entryX=0.5;entryY=1;entryDx=0;entryDy=0;labelBackgroundColor=#FCE7CD;strokeColor=#23445D;" parent="1" source="yGzMHYDaNf_yrKZ207rC-93" target="yGzMHYDaNf_yrKZ207rC-13" edge="1">
          <mxGeometry width="50" height="50" relative="1" as="geometry">
            <mxPoint x="707.5788727102183" y="124.51114052687626" as="sourcePoint" />
            <mxPoint x="771.9100000000001" y="83" as="targetPoint" />
          </mxGeometry>
        </mxCell>
        <mxCell id="yGzMHYDaNf_yrKZ207rC-15" value="Editore" style="ellipse;whiteSpace=wrap;html=1;fillColor=#182E3E;strokeColor=#FFFFFF;fontColor=#FFFFFF;" parent="1" vertex="1">
          <mxGeometry x="786.25" y="675.23" width="80" height="50" as="geometry" />
        </mxCell>
        <mxCell id="yGzMHYDaNf_yrKZ207rC-16" value="" style="endArrow=none;html=1;rounded=0;exitX=1;exitY=0.5;exitDx=0;exitDy=0;entryX=0.25;entryY=1;entryDx=0;entryDy=0;labelBackgroundColor=#FCE7CD;strokeColor=#23445D;" parent="1" source="yGzMHYDaNf_yrKZ207rC-15" target="yGzMHYDaNf_yrKZ207rC-2" edge="1">
          <mxGeometry width="50" height="50" relative="1" as="geometry">
            <mxPoint x="1006.25" y="690" as="sourcePoint" />
            <mxPoint x="1056.25" y="640" as="targetPoint" />
          </mxGeometry>
        </mxCell>
        <mxCell id="yGzMHYDaNf_yrKZ207rC-17" value="Fruizione" style="ellipse;whiteSpace=wrap;html=1;fillColor=#182E3E;strokeColor=#FFFFFF;fontColor=#FFFFFF;" parent="1" vertex="1">
          <mxGeometry x="428.6700000000001" y="442.5" width="90" height="55" as="geometry" />
        </mxCell>
        <mxCell id="yGzMHYDaNf_yrKZ207rC-18" value="DataPubblicazione" style="ellipse;whiteSpace=wrap;html=1;fillColor=#182E3E;strokeColor=#FFFFFF;fontColor=#FFFFFF;" parent="1" vertex="1">
          <mxGeometry x="1202.92" y="707.8" width="130" height="57.5" as="geometry" />
        </mxCell>
        <mxCell id="yGzMHYDaNf_yrKZ207rC-20" value="COLLANA" style="shape=ext;margin=3;double=1;whiteSpace=wrap;html=1;align=center;fillStyle=auto;strokeColor=#F5F5F5;fontColor=#F5F5F5;fillColor=#182E3E;" parent="1" vertex="1">
          <mxGeometry x="1437.92" y="773.73" width="120" height="60" as="geometry" />
        </mxCell>
        <mxCell id="yGzMHYDaNf_yrKZ207rC-21" value="&lt;font color=&quot;#f5f5f5&quot;&gt;APPARTENENZA&lt;/font&gt;" style="shape=rhombus;double=1;perimeter=rhombusPerimeter;whiteSpace=wrap;html=1;align=center;fillColor=#182E3E;fillStyle=auto;strokeColor=#F5F5F5;" parent="1" vertex="1">
          <mxGeometry x="1262.92" y="763.73" width="120" height="80" as="geometry" />
        </mxCell>
        <mxCell id="yGzMHYDaNf_yrKZ207rC-22" value="" style="endArrow=none;html=1;rounded=0;entryX=0;entryY=0.5;entryDx=0;entryDy=0;exitX=1;exitY=0.5;exitDx=0;exitDy=0;labelBackgroundColor=#FCE7CD;strokeColor=#23445D;fontColor=#000000;" parent="1" source="yGzMHYDaNf_yrKZ207rC-4" target="yGzMHYDaNf_yrKZ207rC-21" edge="1">
          <mxGeometry width="50" height="50" relative="1" as="geometry">
            <mxPoint x="1097.92" y="813.73" as="sourcePoint" />
            <mxPoint x="1147.92" y="763.73" as="targetPoint" />
          </mxGeometry>
        </mxCell>
        <mxCell id="yGzMHYDaNf_yrKZ207rC-23" value="N" style="text;html=1;strokeColor=none;fillColor=none;align=center;verticalAlign=middle;whiteSpace=wrap;rounded=0;fontColor=#000000;" parent="1" vertex="1">
          <mxGeometry x="1377.92" y="803.73" width="60" height="30" as="geometry" />
        </mxCell>
        <mxCell id="yGzMHYDaNf_yrKZ207rC-24" value="N" style="text;html=1;strokeColor=none;fillColor=none;align=center;verticalAlign=middle;whiteSpace=wrap;rounded=0;fontColor=#000000;" parent="1" vertex="1">
          <mxGeometry x="1207.92" y="803.73" width="60" height="30" as="geometry" />
        </mxCell>
        <mxCell id="yGzMHYDaNf_yrKZ207rC-25" value="(2,N)" style="text;html=1;strokeColor=none;fillColor=none;align=center;verticalAlign=middle;whiteSpace=wrap;rounded=0;fontColor=#000000;" parent="1" vertex="1">
          <mxGeometry x="1377.92" y="773.98" width="60" height="30" as="geometry" />
        </mxCell>
        <mxCell id="yGzMHYDaNf_yrKZ207rC-26" value="(0,N)" style="text;html=1;strokeColor=none;fillColor=none;align=center;verticalAlign=middle;whiteSpace=wrap;rounded=0;fontColor=#000000;" parent="1" vertex="1">
          <mxGeometry x="1195.42" y="769.8499999999999" width="60" height="30" as="geometry" />
        </mxCell>
        <mxCell id="yGzMHYDaNf_yrKZ207rC-27" value="Data" style="ellipse;whiteSpace=wrap;html=1;fillColor=#182E3E;strokeColor=#FFFFFF;fontColor=#FFFFFF;" parent="1" vertex="1">
          <mxGeometry x="1061.26" y="1083.73" width="70" height="40" as="geometry" />
        </mxCell>
        <mxCell id="yGzMHYDaNf_yrKZ207rC-28" value="" style="endArrow=none;html=1;rounded=0;exitX=1;exitY=0.5;exitDx=0;exitDy=0;labelBackgroundColor=#FCE7CD;strokeColor=#23445D;fontColor=#000000;" parent="1" target="XhCrg1R68w2tLpCAlJi1-1" edge="1">
          <mxGeometry width="50" height="50" relative="1" as="geometry">
            <mxPoint x="1192.92" y="1023.73" as="sourcePoint" />
            <mxPoint x="1237.92" y="1023.73" as="targetPoint" />
          </mxGeometry>
        </mxCell>
        <mxCell id="yGzMHYDaNf_yrKZ207rC-29" value="" style="endArrow=none;html=1;rounded=0;exitX=0.5;exitY=0;exitDx=0;exitDy=0;entryX=0.25;entryY=1;entryDx=0;entryDy=0;labelBackgroundColor=#FCE7CD;strokeColor=#23445D;" parent="1" source="yGzMHYDaNf_yrKZ207rC-27" edge="1">
          <mxGeometry width="50" height="50" relative="1" as="geometry">
            <mxPoint x="1117.92" y="983.73" as="sourcePoint" />
            <mxPoint x="1110.42" y="1053.73" as="targetPoint" />
          </mxGeometry>
        </mxCell>
        <mxCell id="yGzMHYDaNf_yrKZ207rC-30" value="d" style="ellipse;whiteSpace=wrap;html=1;aspect=fixed;fillColor=#182E3E;strokeColor=#FFFFFF;fontColor=#FFFFFF;" parent="1" vertex="1">
          <mxGeometry x="911.25" y="710" width="40" height="40" as="geometry" />
        </mxCell>
        <mxCell id="yGzMHYDaNf_yrKZ207rC-31" value="" style="endArrow=none;html=1;rounded=0;entryX=1;entryY=1;entryDx=0;entryDy=0;startArrow=none;labelBackgroundColor=#FCE7CD;strokeColor=#23445D;exitX=0;exitY=0;exitDx=0;exitDy=0;" parent="1" source="yGzMHYDaNf_yrKZ207rC-4" target="yGzMHYDaNf_yrKZ207rC-30" edge="1">
          <mxGeometry width="50" height="50" relative="1" as="geometry">
            <mxPoint x="1071.25" y="760" as="sourcePoint" />
            <mxPoint x="886.25" y="720" as="targetPoint" />
          </mxGeometry>
        </mxCell>
        <mxCell id="yGzMHYDaNf_yrKZ207rC-32" value="" style="endArrow=none;html=1;rounded=0;entryX=0;entryY=1;entryDx=0;entryDy=0;labelBackgroundColor=#FCE7CD;strokeColor=#23445D;exitX=0.75;exitY=0;exitDx=0;exitDy=0;" parent="1" source="yGzMHYDaNf_yrKZ207rC-58" target="yGzMHYDaNf_yrKZ207rC-30" edge="1">
          <mxGeometry width="50" height="50" relative="1" as="geometry">
            <mxPoint x="836.25" y="770" as="sourcePoint" />
            <mxPoint x="917.1078643762689" y="744.1421356237311" as="targetPoint" />
          </mxGeometry>
        </mxCell>
        <mxCell id="yGzMHYDaNf_yrKZ207rC-33" value="" style="endArrow=none;html=1;rounded=0;entryX=0.5;entryY=1;entryDx=0;entryDy=0;labelBackgroundColor=#FCE7CD;strokeColor=#23445D;fontColor=#000000;" parent="1" target="yGzMHYDaNf_yrKZ207rC-4" edge="1">
          <mxGeometry width="50" height="50" relative="1" as="geometry">
            <mxPoint x="1137.531695906433" y="873.73" as="sourcePoint" />
            <mxPoint x="1017.9200000000001" y="793.73" as="targetPoint" />
          </mxGeometry>
        </mxCell>
        <mxCell id="yGzMHYDaNf_yrKZ207rC-34" value="" style="endArrow=none;html=1;rounded=0;entryX=0.51;entryY=0.968;entryDx=0;entryDy=0;entryPerimeter=0;labelBackgroundColor=#FCE7CD;strokeColor=#23445D;fontColor=#000000;" parent="1" source="yGzMHYDaNf_yrKZ207rC-201" edge="1">
          <mxGeometry width="50" height="50" relative="1" as="geometry">
            <mxPoint x="1137.9200000000005" y="993.73" as="sourcePoint" />
            <mxPoint x="1138.6066" y="961.8179999999998" as="targetPoint" />
          </mxGeometry>
        </mxCell>
        <mxCell id="yGzMHYDaNf_yrKZ207rC-35" value="N" style="text;html=1;strokeColor=none;fillColor=none;align=center;verticalAlign=middle;whiteSpace=wrap;rounded=0;fontColor=#000000;" parent="1" vertex="1">
          <mxGeometry x="1117.93" y="973.73" width="60" height="30" as="geometry" />
        </mxCell>
        <mxCell id="yGzMHYDaNf_yrKZ207rC-36" value="1" style="text;html=1;strokeColor=none;fillColor=none;align=center;verticalAlign=middle;whiteSpace=wrap;rounded=0;fontColor=#000000;" parent="1" vertex="1">
          <mxGeometry x="1121.26" y="823.25" width="60" height="30" as="geometry" />
        </mxCell>
        <mxCell id="yGzMHYDaNf_yrKZ207rC-37" value="(0,N)" style="text;html=1;strokeColor=none;fillColor=none;align=center;verticalAlign=middle;whiteSpace=wrap;rounded=0;fontColor=#000000;" parent="1" vertex="1">
          <mxGeometry x="1086.25" y="823.25" width="60" height="30" as="geometry" />
        </mxCell>
        <mxCell id="yGzMHYDaNf_yrKZ207rC-38" value="(1,1)" style="text;html=1;strokeColor=none;fillColor=none;align=center;verticalAlign=middle;whiteSpace=wrap;rounded=0;fontColor=#000000;" parent="1" vertex="1">
          <mxGeometry x="1087.92" y="972.73" width="60" height="30" as="geometry" />
        </mxCell>
        <mxCell id="yGzMHYDaNf_yrKZ207rC-39" value="" style="endArrow=none;html=1;rounded=0;entryX=0;entryY=1;entryDx=0;entryDy=0;labelBackgroundColor=#FCE7CD;strokeColor=#23445D;exitX=1;exitY=0;exitDx=0;exitDy=0;" parent="1" source="yGzMHYDaNf_yrKZ207rC-4" target="yGzMHYDaNf_yrKZ207rC-18" edge="1">
          <mxGeometry width="50" height="50" relative="1" as="geometry">
            <mxPoint x="1151.92" y="773.73" as="sourcePoint" />
            <mxPoint x="1201.92" y="723.73" as="targetPoint" />
          </mxGeometry>
        </mxCell>
        <mxCell id="yGzMHYDaNf_yrKZ207rC-40" value="DataNascita" style="ellipse;whiteSpace=wrap;html=1;fillColor=#182E3E;strokeColor=#FFFFFF;fontColor=#FFFFFF;" parent="1" vertex="1">
          <mxGeometry x="1080.42" y="562.98" width="95" height="50" as="geometry" />
        </mxCell>
        <mxCell id="yGzMHYDaNf_yrKZ207rC-41" value="" style="endArrow=none;html=1;rounded=0;exitX=1;exitY=0.25;exitDx=0;exitDy=0;labelBackgroundColor=#FCE7CD;strokeColor=#23445D;entryX=0;entryY=0.5;entryDx=0;entryDy=0;" parent="1" source="yGzMHYDaNf_yrKZ207rC-93" target="yGzMHYDaNf_yrKZ207rC-94" edge="1">
          <mxGeometry width="50" height="50" relative="1" as="geometry">
            <mxPoint x="727.2653390593275" y="131.7867965644034" as="sourcePoint" />
            <mxPoint x="778.75" y="91.78999999999996" as="targetPoint" />
          </mxGeometry>
        </mxCell>
        <mxCell id="yGzMHYDaNf_yrKZ207rC-42" value="CodiceFiscale" style="ellipse;whiteSpace=wrap;html=1;fillColor=#182E3E;strokeColor=#FFFFFF;fontColor=#FFFFFF;" parent="1" vertex="1">
          <mxGeometry x="1131.26" y="665.0799999999999" width="95" height="50" as="geometry" />
        </mxCell>
        <mxCell id="yGzMHYDaNf_yrKZ207rC-43" value="" style="endArrow=none;html=1;rounded=0;labelBackgroundColor=#FCE7CD;strokeColor=#23445D;entryX=0.01;entryY=0.543;entryDx=0;entryDy=0;entryPerimeter=0;exitX=1;exitY=1;exitDx=0;exitDy=0;" parent="1" source="yGzMHYDaNf_yrKZ207rC-9" target="yGzMHYDaNf_yrKZ207rC-42" edge="1">
          <mxGeometry width="50" height="50" relative="1" as="geometry">
            <mxPoint x="1118.75" y="659" as="sourcePoint" />
            <mxPoint x="1140" y="700" as="targetPoint" />
          </mxGeometry>
        </mxCell>
        <mxCell id="yGzMHYDaNf_yrKZ207rC-44" value="" style="endArrow=none;html=1;rounded=0;entryX=0;entryY=0.5;entryDx=0;entryDy=0;labelBackgroundColor=#FCE7CD;strokeColor=#23445D;fontColor=#000000;" parent="1" source="yGzMHYDaNf_yrKZ207rC-21" target="yGzMHYDaNf_yrKZ207rC-20" edge="1">
          <mxGeometry width="50" height="50" relative="1" as="geometry">
            <mxPoint x="1277.92" y="863.73" as="sourcePoint" />
            <mxPoint x="1327.92" y="813.73" as="targetPoint" />
          </mxGeometry>
        </mxCell>
        <mxCell id="yGzMHYDaNf_yrKZ207rC-45" value="Nazionalità" style="ellipse;whiteSpace=wrap;html=1;strokeColor=#FFFFFF;fontColor=#FFFFFF;fillColor=#182E3E;" parent="1" vertex="1">
          <mxGeometry x="1131.2599999999998" y="607.26" width="95" height="50" as="geometry" />
        </mxCell>
        <mxCell id="yGzMHYDaNf_yrKZ207rC-46" value="" style="endArrow=none;html=1;rounded=0;strokeColor=#23445D;entryX=0;entryY=0.5;entryDx=0;entryDy=0;exitX=1;exitY=0;exitDx=0;exitDy=0;" parent="1" source="yGzMHYDaNf_yrKZ207rC-9" target="yGzMHYDaNf_yrKZ207rC-45" edge="1">
          <mxGeometry width="50" height="50" relative="1" as="geometry">
            <mxPoint x="1008.3399999999999" y="581.03" as="sourcePoint" />
            <mxPoint x="1058.34" y="531.03" as="targetPoint" />
          </mxGeometry>
        </mxCell>
        <mxCell id="yGzMHYDaNf_yrKZ207rC-47" value="&lt;font color=&quot;#000000&quot;&gt;Età&lt;/font&gt;" style="ellipse;whiteSpace=wrap;html=1;align=center;dashed=1;strokeColor=#000000;fontColor=#FFFFFF;fillColor=none;" parent="1" vertex="1">
          <mxGeometry x="609.11" y="70" width="57.22" height="38.21" as="geometry" />
        </mxCell>
        <mxCell id="yGzMHYDaNf_yrKZ207rC-48" value="" style="endArrow=none;html=1;rounded=0;strokeColor=#23445D;fontColor=#000000;exitX=1;exitY=1;exitDx=0;exitDy=0;" parent="1" source="yGzMHYDaNf_yrKZ207rC-47" target="yGzMHYDaNf_yrKZ207rC-93" edge="1">
          <mxGeometry width="50" height="50" relative="1" as="geometry">
            <mxPoint x="581.9100000000001" y="213" as="sourcePoint" />
            <mxPoint x="656.5546609406726" y="131.7867965644034" as="targetPoint" />
          </mxGeometry>
        </mxCell>
        <mxCell id="yGzMHYDaNf_yrKZ207rC-49" value="" style="shape=requiredInterface;html=1;verticalLabelPosition=bottom;sketch=0;strokeColor=#000000;fontColor=#000000;fillColor=none;rotation=15;" parent="1" vertex="1">
          <mxGeometry x="989.5900000000001" y="751.31" width="10" height="10" as="geometry" />
        </mxCell>
        <mxCell id="yGzMHYDaNf_yrKZ207rC-50" value="" style="shape=requiredInterface;html=1;verticalLabelPosition=bottom;sketch=0;strokeColor=#000000;fontColor=#000000;fillColor=none;rotation=-200;" parent="1" vertex="1">
          <mxGeometry x="876.25" y="750" width="10" height="10" as="geometry" />
        </mxCell>
        <mxCell id="yGzMHYDaNf_yrKZ207rC-51" value="Lingua" style="ellipse;whiteSpace=wrap;html=1;fillColor=#182E3E;strokeColor=#FFFFFF;fontColor=#FFFFFF;" parent="1" vertex="1">
          <mxGeometry x="1217.92" y="874.0799999999999" width="70" height="40" as="geometry" />
        </mxCell>
        <mxCell id="yGzMHYDaNf_yrKZ207rC-52" value="Genere" style="ellipse;whiteSpace=wrap;html=1;fillColor=#182E3E;strokeColor=#FFFFFF;fontColor=#FFFFFF;" parent="1" vertex="1">
          <mxGeometry x="1104.59" y="716.8599999999999" width="66.66" height="39.38" as="geometry" />
        </mxCell>
        <mxCell id="yGzMHYDaNf_yrKZ207rC-53" value="" style="endArrow=none;html=1;rounded=0;strokeColor=#23445D;fontColor=#000000;entryX=0.5;entryY=1;entryDx=0;entryDy=0;" parent="1" source="yGzMHYDaNf_yrKZ207rC-4" target="yGzMHYDaNf_yrKZ207rC-52" edge="1">
          <mxGeometry width="50" height="50" relative="1" as="geometry">
            <mxPoint x="1117.92" y="813.73" as="sourcePoint" />
            <mxPoint x="1167.92" y="763.73" as="targetPoint" />
          </mxGeometry>
        </mxCell>
        <mxCell id="yGzMHYDaNf_yrKZ207rC-54" value="ISBN" style="ellipse;whiteSpace=wrap;html=1;fillColor=#182E3E;strokeColor=#FFFFFF;fontColor=#FFFFFF;" parent="1" vertex="1">
          <mxGeometry x="1222.92" y="828.8900000000001" width="60" height="39.69" as="geometry" />
        </mxCell>
        <mxCell id="yGzMHYDaNf_yrKZ207rC-55" value="" style="endArrow=none;html=1;rounded=0;strokeColor=#23445D;fontColor=#000000;exitX=0;exitY=0.5;exitDx=0;exitDy=0;entryX=1;entryY=1;entryDx=0;entryDy=0;" parent="1" source="yGzMHYDaNf_yrKZ207rC-54" target="yGzMHYDaNf_yrKZ207rC-4" edge="1">
          <mxGeometry width="50" height="50" relative="1" as="geometry">
            <mxPoint x="1315.41" y="878.5799999999999" as="sourcePoint" />
            <mxPoint x="1277.09" y="863.9000000000001" as="targetPoint" />
          </mxGeometry>
        </mxCell>
        <mxCell id="yGzMHYDaNf_yrKZ207rC-56" value="Ora" style="ellipse;whiteSpace=wrap;html=1;fillColor=#182E3E;strokeColor=#FFFFFF;fontColor=#FFFFFF;" parent="1" vertex="1">
          <mxGeometry x="1147.92" y="1083.73" width="70" height="40" as="geometry" />
        </mxCell>
        <mxCell id="yGzMHYDaNf_yrKZ207rC-57" value="" style="endArrow=none;html=1;rounded=0;exitX=0.5;exitY=0;exitDx=0;exitDy=0;entryX=0.75;entryY=1;entryDx=0;entryDy=0;labelBackgroundColor=#FCE7CD;strokeColor=#23445D;" parent="1" source="yGzMHYDaNf_yrKZ207rC-56" edge="1">
          <mxGeometry width="50" height="50" relative="1" as="geometry">
            <mxPoint x="1204.58" y="983.73" as="sourcePoint" />
            <mxPoint x="1165.42" y="1053.73" as="targetPoint" />
          </mxGeometry>
        </mxCell>
        <mxCell id="yGzMHYDaNf_yrKZ207rC-58" value="RIVISTA" style="shape=ext;margin=3;double=1;whiteSpace=wrap;html=1;align=center;fillStyle=auto;strokeColor=#F5F5F5;fontColor=#F5F5F5;fillColor=#182E3E;" parent="1" vertex="1">
          <mxGeometry x="730.25" y="773.98" width="121.42" height="57.5" as="geometry" />
        </mxCell>
        <mxCell id="yGzMHYDaNf_yrKZ207rC-59" value="CONFERENZA" style="shape=ext;margin=3;whiteSpace=wrap;html=1;align=center;fillStyle=auto;strokeColor=#F5F5F5;fontColor=#F5F5F5;fillColor=#182E3E;" parent="1" vertex="1">
          <mxGeometry x="312.5" y="1000" width="140" height="70" as="geometry" />
        </mxCell>
        <mxCell id="yGzMHYDaNf_yrKZ207rC-60" value="Argomento" style="ellipse;whiteSpace=wrap;html=1;fillColor=#182E3E;strokeColor=#FFFFFF;fontColor=#FFFFFF;" parent="1" vertex="1">
          <mxGeometry x="726.25" y="725" width="80" height="35" as="geometry" />
        </mxCell>
        <mxCell id="yGzMHYDaNf_yrKZ207rC-61" value="" style="endArrow=none;html=1;rounded=0;strokeColor=#23445D;fontColor=#000000;entryX=0.5;entryY=1;entryDx=0;entryDy=0;exitX=0.5;exitY=0;exitDx=0;exitDy=0;" parent="1" source="yGzMHYDaNf_yrKZ207rC-58" target="yGzMHYDaNf_yrKZ207rC-60" edge="1">
          <mxGeometry width="50" height="50" relative="1" as="geometry">
            <mxPoint x="811.25" y="850" as="sourcePoint" />
            <mxPoint x="916.25" y="925" as="targetPoint" />
          </mxGeometry>
        </mxCell>
        <mxCell id="yGzMHYDaNf_yrKZ207rC-62" value="Nome" style="ellipse;whiteSpace=wrap;html=1;fillColor=#182E3E;strokeColor=#FFFFFF;fontColor=#FFFFFF;" parent="1" vertex="1">
          <mxGeometry x="768.74" y="840" width="61.26" height="41.25" as="geometry" />
        </mxCell>
        <mxCell id="yGzMHYDaNf_yrKZ207rC-63" value="Cognome" style="ellipse;whiteSpace=wrap;html=1;fillColor=#182E3E;strokeColor=#FFFFFF;fontColor=#FFFFFF;" parent="1" vertex="1">
          <mxGeometry x="572.0699999999999" y="888.1300000000001" width="80" height="40" as="geometry" />
        </mxCell>
        <mxCell id="yGzMHYDaNf_yrKZ207rC-64" value="DataNascita" style="ellipse;whiteSpace=wrap;html=1;fillColor=#182E3E;strokeColor=#FFFFFF;fontColor=#FFFFFF;" parent="1" vertex="1">
          <mxGeometry x="654.6999999999999" y="941.27" width="95" height="50" as="geometry" />
        </mxCell>
        <mxCell id="yGzMHYDaNf_yrKZ207rC-65" value="" style="endArrow=none;html=1;rounded=0;labelBackgroundColor=#FCE7CD;strokeColor=#23445D;" parent="1" source="yGzMHYDaNf_yrKZ207rC-71" target="yGzMHYDaNf_yrKZ207rC-64" edge="1">
          <mxGeometry width="50" height="50" relative="1" as="geometry">
            <mxPoint x="729.3153390593211" y="831.1767965644074" as="sourcePoint" />
            <mxPoint x="610.3" y="842.3900000000001" as="targetPoint" />
          </mxGeometry>
        </mxCell>
        <mxCell id="yGzMHYDaNf_yrKZ207rC-66" value="CodiceFiscale" style="ellipse;whiteSpace=wrap;html=1;fillColor=#182E3E;strokeColor=#FFFFFF;fontColor=#FFFFFF;" parent="1" vertex="1">
          <mxGeometry x="772.4099999999999" y="941.2700000000002" width="95" height="50" as="geometry" />
        </mxCell>
        <mxCell id="yGzMHYDaNf_yrKZ207rC-67" value="Nazionalità" style="ellipse;whiteSpace=wrap;html=1;strokeColor=#FFFFFF;fontColor=#FFFFFF;fillColor=#182E3E;" parent="1" vertex="1">
          <mxGeometry x="796.25" y="883.1300000000001" width="95" height="50" as="geometry" />
        </mxCell>
        <mxCell id="yGzMHYDaNf_yrKZ207rC-68" value="" style="endArrow=none;html=1;rounded=0;strokeColor=#23445D;entryX=0;entryY=0.5;entryDx=0;entryDy=0;exitX=1;exitY=0.5;exitDx=0;exitDy=0;" parent="1" source="yGzMHYDaNf_yrKZ207rC-71" target="yGzMHYDaNf_yrKZ207rC-67" edge="1">
          <mxGeometry width="50" height="50" relative="1" as="geometry">
            <mxPoint x="743.9599999999955" y="852.3900000000003" as="sourcePoint" />
            <mxPoint x="683.9599999999998" y="802.3900000000001" as="targetPoint" />
          </mxGeometry>
        </mxCell>
        <mxCell id="yGzMHYDaNf_yrKZ207rC-69" value="&lt;font color=&quot;#000000&quot;&gt;Età&lt;/font&gt;" style="ellipse;whiteSpace=wrap;html=1;align=center;dashed=1;strokeColor=#000000;fontColor=#FFFFFF;fillColor=none;" parent="1" vertex="1">
          <mxGeometry x="625.2199999999999" y="840" width="53.83" height="30" as="geometry" />
        </mxCell>
        <mxCell id="yGzMHYDaNf_yrKZ207rC-70" value="" style="endArrow=none;html=1;rounded=0;strokeColor=#23445D;fontColor=#000000;exitX=0.5;exitY=1;exitDx=0;exitDy=0;entryX=0;entryY=0;entryDx=0;entryDy=0;" parent="1" source="yGzMHYDaNf_yrKZ207rC-69" target="yGzMHYDaNf_yrKZ207rC-71" edge="1">
          <mxGeometry width="50" height="50" relative="1" as="geometry">
            <mxPoint x="760.3" y="832.3900000000001" as="sourcePoint" />
            <mxPoint x="658.903002409312" y="830.9992896056826" as="targetPoint" />
          </mxGeometry>
        </mxCell>
        <mxCell id="yGzMHYDaNf_yrKZ207rC-71" value="Responsabile" style="ellipse;whiteSpace=wrap;html=1;fillColor=#182E3E;strokeColor=#FFFFFF;fontColor=#FFFFFF;" parent="1" vertex="1">
          <mxGeometry x="666.3299999999999" y="881.25" width="105.58" height="53.75" as="geometry" />
        </mxCell>
        <mxCell id="yGzMHYDaNf_yrKZ207rC-72" value="" style="endArrow=none;html=1;rounded=0;strokeColor=#23445D;fontColor=#000000;exitX=0;exitY=0;exitDx=0;exitDy=0;" parent="1" source="yGzMHYDaNf_yrKZ207rC-66" target="yGzMHYDaNf_yrKZ207rC-71" edge="1">
          <mxGeometry width="50" height="50" relative="1" as="geometry">
            <mxPoint x="865.3" y="949.8900000000001" as="sourcePoint" />
            <mxPoint x="917.0500000000004" y="939.6600000000001" as="targetPoint" />
          </mxGeometry>
        </mxCell>
        <mxCell id="yGzMHYDaNf_yrKZ207rC-73" value="Luogo" style="ellipse;whiteSpace=wrap;html=1;fillColor=#182E3E;strokeColor=#FFFFFF;fontColor=#FFFFFF;" parent="1" vertex="1">
          <mxGeometry x="202.08000000000004" y="1070" width="70" height="40" as="geometry" />
        </mxCell>
        <mxCell id="yGzMHYDaNf_yrKZ207rC-74" value="" style="endArrow=none;html=1;rounded=0;strokeColor=#23445D;fontColor=#000000;entryX=0;entryY=0.5;entryDx=0;entryDy=0;" parent="1" target="yGzMHYDaNf_yrKZ207rC-59" edge="1">
          <mxGeometry width="50" height="50" relative="1" as="geometry">
            <mxPoint x="241.25" y="1070" as="sourcePoint" />
            <mxPoint x="540" y="1033.73" as="targetPoint" />
          </mxGeometry>
        </mxCell>
        <mxCell id="yGzMHYDaNf_yrKZ207rC-75" value="DataInizio" style="ellipse;whiteSpace=wrap;html=1;fillColor=#182E3E;strokeColor=#FFFFFF;fontColor=#FFFFFF;" parent="1" vertex="1">
          <mxGeometry x="335" y="1110" width="95" height="50" as="geometry" />
        </mxCell>
        <mxCell id="yGzMHYDaNf_yrKZ207rC-76" value="" style="endArrow=none;html=1;rounded=0;strokeColor=#23445D;fontColor=#000000;exitX=0.5;exitY=0;exitDx=0;exitDy=0;entryX=0.5;entryY=1;entryDx=0;entryDy=0;" parent="1" source="yGzMHYDaNf_yrKZ207rC-75" target="yGzMHYDaNf_yrKZ207rC-59" edge="1">
          <mxGeometry width="50" height="50" relative="1" as="geometry">
            <mxPoint x="490" y="1083.73" as="sourcePoint" />
            <mxPoint x="540" y="1033.73" as="targetPoint" />
          </mxGeometry>
        </mxCell>
        <mxCell id="yGzMHYDaNf_yrKZ207rC-77" value="DataFine" style="ellipse;whiteSpace=wrap;html=1;fillColor=#182E3E;strokeColor=#FFFFFF;fontColor=#FFFFFF;" parent="1" vertex="1">
          <mxGeometry x="458.6700000000001" y="1108.73" width="95" height="50" as="geometry" />
        </mxCell>
        <mxCell id="yGzMHYDaNf_yrKZ207rC-78" value="" style="endArrow=none;html=1;rounded=0;strokeColor=#23445D;fontColor=#000000;exitX=0.5;exitY=0;exitDx=0;exitDy=0;entryX=1;entryY=1;entryDx=0;entryDy=0;" parent="1" source="yGzMHYDaNf_yrKZ207rC-77" target="yGzMHYDaNf_yrKZ207rC-59" edge="1">
          <mxGeometry width="50" height="50" relative="1" as="geometry">
            <mxPoint x="490" y="1083.73" as="sourcePoint" />
            <mxPoint x="540" y="1033.73" as="targetPoint" />
          </mxGeometry>
        </mxCell>
        <mxCell id="yGzMHYDaNf_yrKZ207rC-79" value="LuogoConferenza" style="ellipse;whiteSpace=wrap;html=1;fillColor=#182E3E;strokeColor=#FFFFFF;fontColor=#FFFFFF;" parent="1" vertex="1">
          <mxGeometry x="80" y="1110" width="130" height="50" as="geometry" />
        </mxCell>
        <mxCell id="yGzMHYDaNf_yrKZ207rC-80" value="" style="endArrow=none;html=1;rounded=0;strokeColor=#23445D;fontColor=#000000;exitX=0.5;exitY=0;exitDx=0;exitDy=0;entryX=0;entryY=0.5;entryDx=0;entryDy=0;" parent="1" source="yGzMHYDaNf_yrKZ207rC-79" target="yGzMHYDaNf_yrKZ207rC-73" edge="1">
          <mxGeometry width="50" height="50" relative="1" as="geometry">
            <mxPoint x="392.5" y="1173.73" as="sourcePoint" />
            <mxPoint x="442.5" y="1123.73" as="targetPoint" />
          </mxGeometry>
        </mxCell>
        <mxCell id="yGzMHYDaNf_yrKZ207rC-81" value="StrutturaOrganizzatrice" style="ellipse;whiteSpace=wrap;html=1;fillColor=#182E3E;strokeColor=#FFFFFF;fontColor=#FFFFFF;" parent="1" vertex="1">
          <mxGeometry x="252.5" y="1173.73" width="150" height="60" as="geometry" />
        </mxCell>
        <mxCell id="yGzMHYDaNf_yrKZ207rC-82" value="" style="endArrow=none;html=1;rounded=0;strokeColor=#23445D;fontColor=#000000;exitX=1;exitY=1;exitDx=0;exitDy=0;entryX=0.5;entryY=0;entryDx=0;entryDy=0;" parent="1" source="yGzMHYDaNf_yrKZ207rC-73" target="yGzMHYDaNf_yrKZ207rC-81" edge="1">
          <mxGeometry width="50" height="50" relative="1" as="geometry">
            <mxPoint x="392.5" y="1173.73" as="sourcePoint" />
            <mxPoint x="442.5" y="1123.73" as="targetPoint" />
          </mxGeometry>
        </mxCell>
        <mxCell id="yGzMHYDaNf_yrKZ207rC-83" value="Nazione" style="ellipse;whiteSpace=wrap;html=1;fillColor=#182E3E;strokeColor=#FFFFFF;fontColor=#FFFFFF;" parent="1" vertex="1">
          <mxGeometry x="40" y="1160" width="70" height="40" as="geometry" />
        </mxCell>
        <mxCell id="yGzMHYDaNf_yrKZ207rC-84" value="" style="endArrow=none;html=1;rounded=0;strokeColor=#23445D;fontColor=#000000;entryX=0;entryY=1;entryDx=0;entryDy=0;exitX=0.5;exitY=0;exitDx=0;exitDy=0;" parent="1" source="yGzMHYDaNf_yrKZ207rC-83" target="yGzMHYDaNf_yrKZ207rC-79" edge="1">
          <mxGeometry width="50" height="50" relative="1" as="geometry">
            <mxPoint x="55" y="1243.73" as="sourcePoint" />
            <mxPoint x="105" y="1193.73" as="targetPoint" />
          </mxGeometry>
        </mxCell>
        <mxCell id="yGzMHYDaNf_yrKZ207rC-85" value="Città" style="ellipse;whiteSpace=wrap;html=1;fillColor=#182E3E;strokeColor=#FFFFFF;fontColor=#FFFFFF;" parent="1" vertex="1">
          <mxGeometry x="110" y="1200" width="70" height="40" as="geometry" />
        </mxCell>
        <mxCell id="yGzMHYDaNf_yrKZ207rC-86" value="" style="endArrow=none;html=1;rounded=0;strokeColor=#23445D;fontColor=#000000;exitX=0.5;exitY=0;exitDx=0;exitDy=0;entryX=0.5;entryY=1;entryDx=0;entryDy=0;" parent="1" source="yGzMHYDaNf_yrKZ207rC-85" target="yGzMHYDaNf_yrKZ207rC-79" edge="1">
          <mxGeometry width="50" height="50" relative="1" as="geometry">
            <mxPoint x="182.5" y="1263.73" as="sourcePoint" />
            <mxPoint x="232.5" y="1213.73" as="targetPoint" />
          </mxGeometry>
        </mxCell>
        <mxCell id="yGzMHYDaNf_yrKZ207rC-87" value="Indirizzo" style="ellipse;whiteSpace=wrap;html=1;fillColor=#182E3E;strokeColor=#FFFFFF;fontColor=#FFFFFF;" parent="1" vertex="1">
          <mxGeometry x="174.15999999999997" y="1160" width="70" height="40" as="geometry" />
        </mxCell>
        <mxCell id="yGzMHYDaNf_yrKZ207rC-88" value="" style="endArrow=none;html=1;rounded=0;strokeColor=#23445D;fontColor=#000000;exitX=0;exitY=0;exitDx=0;exitDy=0;entryX=0.726;entryY=1.017;entryDx=0;entryDy=0;entryPerimeter=0;" parent="1" source="yGzMHYDaNf_yrKZ207rC-87" target="yGzMHYDaNf_yrKZ207rC-79" edge="1">
          <mxGeometry width="50" height="50" relative="1" as="geometry">
            <mxPoint x="207.5" y="1233.73" as="sourcePoint" />
            <mxPoint x="257.5" y="1183.73" as="targetPoint" />
          </mxGeometry>
        </mxCell>
        <mxCell id="yGzMHYDaNf_yrKZ207rC-89" value="" style="endArrow=none;html=1;rounded=0;strokeColor=#23445D;fontColor=#000000;entryX=1;entryY=0.5;entryDx=0;entryDy=0;exitX=0;exitY=0.5;exitDx=0;exitDy=0;" parent="1" source="yGzMHYDaNf_yrKZ207rC-71" target="yGzMHYDaNf_yrKZ207rC-63" edge="1">
          <mxGeometry width="50" height="50" relative="1" as="geometry">
            <mxPoint x="610.3" y="882.3900000000001" as="sourcePoint" />
            <mxPoint x="660.3" y="832.3900000000001" as="targetPoint" />
          </mxGeometry>
        </mxCell>
        <mxCell id="yGzMHYDaNf_yrKZ207rC-90" value="" style="endArrow=none;html=1;rounded=0;strokeColor=#23445D;fontColor=#000000;exitX=0;exitY=1;exitDx=0;exitDy=0;entryX=1;entryY=0;entryDx=0;entryDy=0;" parent="1" source="yGzMHYDaNf_yrKZ207rC-62" target="yGzMHYDaNf_yrKZ207rC-71" edge="1">
          <mxGeometry width="50" height="50" relative="1" as="geometry">
            <mxPoint x="800.3" y="822.3900000000001" as="sourcePoint" />
            <mxPoint x="960.3" y="812.3900000000001" as="targetPoint" />
          </mxGeometry>
        </mxCell>
        <mxCell id="yGzMHYDaNf_yrKZ207rC-91" value="Caratteristica" style="ellipse;whiteSpace=wrap;html=1;fillColor=#182E3E;strokeColor=#FFFFFF;fontColor=#FFFFFF;" parent="1" vertex="1">
          <mxGeometry x="1322.92" y="863.73" width="110" height="50" as="geometry" />
        </mxCell>
        <mxCell id="yGzMHYDaNf_yrKZ207rC-92" value="" style="endArrow=none;html=1;rounded=0;strokeColor=#23445D;fontColor=#000000;exitX=0.5;exitY=0;exitDx=0;exitDy=0;entryX=1;entryY=1;entryDx=0;entryDy=0;" parent="1" source="yGzMHYDaNf_yrKZ207rC-91" target="yGzMHYDaNf_yrKZ207rC-21" edge="1">
          <mxGeometry width="50" height="50" relative="1" as="geometry">
            <mxPoint x="1167.92" y="843.73" as="sourcePoint" />
            <mxPoint x="1217.92" y="793.73" as="targetPoint" />
          </mxGeometry>
        </mxCell>
        <mxCell id="yGzMHYDaNf_yrKZ207rC-93" value="UTENTE" style="rounded=0;whiteSpace=wrap;html=1;fillColor=#182E3E;strokeColor=#FFFFFF;fontColor=#FFFFFF;" parent="1" vertex="1">
          <mxGeometry x="647.09" y="131.21000000000004" width="110" height="50" as="geometry" />
        </mxCell>
        <mxCell id="yGzMHYDaNf_yrKZ207rC-94" value="Username" style="ellipse;whiteSpace=wrap;html=1;fillColor=#182E3E;strokeColor=#FFFFFF;fontColor=#FFFFFF;" parent="1" vertex="1">
          <mxGeometry x="796.2500000000001" y="108.20999999999997" width="80" height="41.79" as="geometry" />
        </mxCell>
        <mxCell id="yGzMHYDaNf_yrKZ207rC-95" value="Password" style="ellipse;whiteSpace=wrap;html=1;fillColor=#182E3E;strokeColor=#FFFFFF;fontColor=#FFFFFF;" parent="1" vertex="1">
          <mxGeometry x="553.6700000000001" y="108.21000000000004" width="80" height="41.79" as="geometry" />
        </mxCell>
        <mxCell id="yGzMHYDaNf_yrKZ207rC-96" value="" style="endArrow=none;html=1;rounded=0;strokeColor=#23445D;fontColor=#000000;entryX=0;entryY=1;entryDx=0;entryDy=0;exitX=0.5;exitY=0;exitDx=0;exitDy=0;" parent="1" source="yGzMHYDaNf_yrKZ207rC-9" target="yGzMHYDaNf_yrKZ207rC-40" edge="1">
          <mxGeometry width="50" height="50" relative="1" as="geometry">
            <mxPoint x="828.3399999999999" y="531.03" as="sourcePoint" />
            <mxPoint x="878.3399999999999" y="481.03" as="targetPoint" />
          </mxGeometry>
        </mxCell>
        <mxCell id="yGzMHYDaNf_yrKZ207rC-97" value="" style="endArrow=none;html=1;rounded=0;strokeColor=#23445D;fontColor=#000000;exitX=0.994;exitY=0.633;exitDx=0;exitDy=0;exitPerimeter=0;" parent="1" source="yGzMHYDaNf_yrKZ207rC-95" target="yGzMHYDaNf_yrKZ207rC-93" edge="1">
          <mxGeometry width="50" height="50" relative="1" as="geometry">
            <mxPoint x="728.75" y="111.21000000000004" as="sourcePoint" />
            <mxPoint x="778.75" y="61.210000000000036" as="targetPoint" />
          </mxGeometry>
        </mxCell>
        <mxCell id="yGzMHYDaNf_yrKZ207rC-98" value="DataNascita" style="ellipse;whiteSpace=wrap;html=1;fillColor=#182E3E;strokeColor=#FFFFFF;fontColor=#FFFFFF;" parent="1" vertex="1">
          <mxGeometry x="788.7499999999999" y="160" width="95" height="50" as="geometry" />
        </mxCell>
        <mxCell id="yGzMHYDaNf_yrKZ207rC-99" value="" style="endArrow=none;html=1;rounded=0;strokeColor=#23445D;fontColor=#000000;exitX=1;exitY=0.75;exitDx=0;exitDy=0;" parent="1" source="yGzMHYDaNf_yrKZ207rC-93" target="yGzMHYDaNf_yrKZ207rC-98" edge="1">
          <mxGeometry width="50" height="50" relative="1" as="geometry">
            <mxPoint x="608.75" y="210" as="sourcePoint" />
            <mxPoint x="658.75" y="160" as="targetPoint" />
          </mxGeometry>
        </mxCell>
        <mxCell id="yGzMHYDaNf_yrKZ207rC-100" value="PREFERITI" style="rhombus;whiteSpace=wrap;html=1;fillColor=#182E3E;strokeColor=#FFFFFF;fontColor=#FFFFFF;" parent="1" vertex="1">
          <mxGeometry x="881.25" y="430" width="100" height="80" as="geometry" />
        </mxCell>
        <mxCell id="yGzMHYDaNf_yrKZ207rC-101" value="" style="endArrow=none;html=1;rounded=0;strokeColor=#23445D;fontColor=#000000;entryX=0.5;entryY=1;entryDx=0;entryDy=0;" parent="1" source="yGzMHYDaNf_yrKZ207rC-2" target="yGzMHYDaNf_yrKZ207rC-100" edge="1">
          <mxGeometry width="50" height="50" relative="1" as="geometry">
            <mxPoint x="816.25" y="560" as="sourcePoint" />
            <mxPoint x="866.25" y="510" as="targetPoint" />
          </mxGeometry>
        </mxCell>
        <mxCell id="yGzMHYDaNf_yrKZ207rC-102" value="Recensione" style="ellipse;whiteSpace=wrap;html=1;fillColor=#182E3E;strokeColor=#FFFFFF;fontColor=#FFFFFF;" parent="1" vertex="1">
          <mxGeometry x="806.25" y="400.71000000000004" width="80" height="41.79" as="geometry" />
        </mxCell>
        <mxCell id="yGzMHYDaNf_yrKZ207rC-103" value="" style="endArrow=none;html=1;rounded=0;strokeColor=#23445D;fontColor=#000000;entryX=0;entryY=0;entryDx=0;entryDy=0;exitX=1;exitY=1;exitDx=0;exitDy=0;" parent="1" source="yGzMHYDaNf_yrKZ207rC-102" target="yGzMHYDaNf_yrKZ207rC-100" edge="1">
          <mxGeometry width="50" height="50" relative="1" as="geometry">
            <mxPoint x="816.25" y="470" as="sourcePoint" />
            <mxPoint x="866.25" y="420" as="targetPoint" />
          </mxGeometry>
        </mxCell>
        <mxCell id="yGzMHYDaNf_yrKZ207rC-104" style="edgeStyle=orthogonalEdgeStyle;shape=link;rounded=0;orthogonalLoop=1;jettySize=auto;html=1;strokeColor=#23445D;fontColor=#000000;" parent="1" target="yGzMHYDaNf_yrKZ207rC-105" edge="1">
          <mxGeometry relative="1" as="geometry">
            <mxPoint x="757.3571428571429" y="190" as="targetPoint" />
            <mxPoint x="701.25" y="180" as="sourcePoint" />
          </mxGeometry>
        </mxCell>
        <mxCell id="yGzMHYDaNf_yrKZ207rC-105" value="O" style="ellipse;whiteSpace=wrap;html=1;aspect=fixed;fillColor=#182E3E;strokeColor=#FFFFFF;fontColor=#FFFFFF;" parent="1" vertex="1">
          <mxGeometry x="681.25" y="244" width="40" height="40" as="geometry" />
        </mxCell>
        <mxCell id="yGzMHYDaNf_yrKZ207rC-106" value="" style="endArrow=none;html=1;rounded=0;entryX=1;entryY=1;entryDx=0;entryDy=0;exitX=0.227;exitY=0.2;exitDx=0;exitDy=0;startArrow=none;labelBackgroundColor=#FCE7CD;strokeColor=#23445D;exitPerimeter=0;" parent="1" source="yGzMHYDaNf_yrKZ207rC-110" target="yGzMHYDaNf_yrKZ207rC-105" edge="1">
          <mxGeometry width="50" height="50" relative="1" as="geometry">
            <mxPoint x="852.5" y="270" as="sourcePoint" />
            <mxPoint x="707.46" y="181" as="targetPoint" />
          </mxGeometry>
        </mxCell>
        <mxCell id="yGzMHYDaNf_yrKZ207rC-107" value="" style="endArrow=none;html=1;rounded=0;entryX=0;entryY=1;entryDx=0;entryDy=0;labelBackgroundColor=#FCE7CD;strokeColor=#23445D;" parent="1" source="yGzMHYDaNf_yrKZ207rC-112" target="yGzMHYDaNf_yrKZ207rC-105" edge="1">
          <mxGeometry width="50" height="50" relative="1" as="geometry">
            <mxPoint x="617.5" y="270" as="sourcePoint" />
            <mxPoint x="738.317864376269" y="205.14213562373106" as="targetPoint" />
          </mxGeometry>
        </mxCell>
        <mxCell id="yGzMHYDaNf_yrKZ207rC-108" value="" style="shape=requiredInterface;html=1;verticalLabelPosition=bottom;sketch=0;strokeColor=#000000;fontColor=#000000;fillColor=none;rotation=45;" parent="1" vertex="1">
          <mxGeometry x="737.25" y="299" width="10" height="10" as="geometry" />
        </mxCell>
        <mxCell id="yGzMHYDaNf_yrKZ207rC-109" value="" style="shape=requiredInterface;html=1;verticalLabelPosition=bottom;sketch=0;strokeColor=#000000;fontColor=#000000;fillColor=none;rotation=-225;" parent="1" vertex="1">
          <mxGeometry x="646.25" y="299" width="10" height="10" as="geometry" />
        </mxCell>
        <mxCell id="yGzMHYDaNf_yrKZ207rC-110" value="STANDARD" style="rounded=0;whiteSpace=wrap;html=1;fillColor=#182E3E;strokeColor=#FFFFFF;fontColor=#FFFFFF;" parent="1" vertex="1">
          <mxGeometry x="756.25" y="330" width="110" height="50" as="geometry" />
        </mxCell>
        <mxCell id="yGzMHYDaNf_yrKZ207rC-111" value="" style="endArrow=none;html=1;rounded=0;strokeColor=#23445D;fontColor=#000000;entryX=0.5;entryY=0;entryDx=0;entryDy=0;exitX=1;exitY=0.5;exitDx=0;exitDy=0;" parent="1" source="yGzMHYDaNf_yrKZ207rC-110" target="yGzMHYDaNf_yrKZ207rC-100" edge="1">
          <mxGeometry width="50" height="50" relative="1" as="geometry">
            <mxPoint x="656.25" y="390" as="sourcePoint" />
            <mxPoint x="706.25" y="340" as="targetPoint" />
            <Array as="points">
              <mxPoint x="931.25" y="355" />
            </Array>
          </mxGeometry>
        </mxCell>
        <mxCell id="yGzMHYDaNf_yrKZ207rC-112" value="VENDITORE" style="rounded=0;whiteSpace=wrap;html=1;fillColor=#182E3E;strokeColor=#FFFFFF;fontColor=#FFFFFF;" parent="1" vertex="1">
          <mxGeometry x="522.5" y="330" width="110" height="50" as="geometry" />
        </mxCell>
        <mxCell id="yGzMHYDaNf_yrKZ207rC-113" value="POSSESSO" style="rhombus;whiteSpace=wrap;html=1;fillColor=#182E3E;strokeColor=#FFFFFF;fontColor=#FFFFFF;" parent="1" vertex="1">
          <mxGeometry x="527.5" y="460" width="100" height="80" as="geometry" />
        </mxCell>
        <mxCell id="yGzMHYDaNf_yrKZ207rC-114" value="" style="endArrow=none;html=1;rounded=0;strokeColor=#23445D;fontColor=#000000;exitX=0.5;exitY=0;exitDx=0;exitDy=0;entryX=0.5;entryY=1;entryDx=0;entryDy=0;" parent="1" source="yGzMHYDaNf_yrKZ207rC-113" target="yGzMHYDaNf_yrKZ207rC-112" edge="1">
          <mxGeometry width="50" height="50" relative="1" as="geometry">
            <mxPoint x="583.75" y="460" as="sourcePoint" />
            <mxPoint x="812.5" y="430" as="targetPoint" />
          </mxGeometry>
        </mxCell>
        <mxCell id="yGzMHYDaNf_yrKZ207rC-115" value="" style="endArrow=none;html=1;rounded=0;strokeColor=#23445D;fontColor=#000000;exitX=0.5;exitY=1;exitDx=0;exitDy=0;entryX=0;entryY=0.5;entryDx=0;entryDy=0;" parent="1" source="yGzMHYDaNf_yrKZ207rC-113" target="yGzMHYDaNf_yrKZ207rC-2" edge="1">
          <mxGeometry width="50" height="50" relative="1" as="geometry">
            <mxPoint x="756.25" y="660" as="sourcePoint" />
            <mxPoint x="806.25" y="610" as="targetPoint" />
            <Array as="points">
              <mxPoint x="577.25" y="645" />
            </Array>
          </mxGeometry>
        </mxCell>
        <mxCell id="yGzMHYDaNf_yrKZ207rC-116" value="(0,N)" style="text;html=1;strokeColor=none;fillColor=none;align=center;verticalAlign=middle;whiteSpace=wrap;rounded=0;fontColor=#000000;" parent="1" vertex="1">
          <mxGeometry x="866.25" y="330" width="60" height="30" as="geometry" />
        </mxCell>
        <mxCell id="yGzMHYDaNf_yrKZ207rC-117" value="(0,N)" style="text;html=1;strokeColor=none;fillColor=none;align=center;verticalAlign=middle;whiteSpace=wrap;rounded=0;fontColor=#000000;" parent="1" vertex="1">
          <mxGeometry x="921.25" y="568.58" width="60" height="70" as="geometry" />
        </mxCell>
        <mxCell id="yGzMHYDaNf_yrKZ207rC-118" value="N" style="text;html=1;strokeColor=none;fillColor=none;align=center;verticalAlign=middle;whiteSpace=wrap;rounded=0;fontColor=#000000;" parent="1" vertex="1">
          <mxGeometry x="866.25" y="360" width="60" height="30" as="geometry" />
        </mxCell>
        <mxCell id="yGzMHYDaNf_yrKZ207rC-119" value="N" style="text;html=1;strokeColor=none;fillColor=none;align=center;verticalAlign=middle;whiteSpace=wrap;rounded=0;fontColor=#000000;" parent="1" vertex="1">
          <mxGeometry x="891.25" y="570" width="60" height="70" as="geometry" />
        </mxCell>
        <mxCell id="yGzMHYDaNf_yrKZ207rC-120" value="(0,N)" style="text;html=1;strokeColor=none;fillColor=none;align=center;verticalAlign=middle;whiteSpace=wrap;rounded=0;fontColor=#000000;" parent="1" vertex="1">
          <mxGeometry x="527.5" y="380" width="60" height="30" as="geometry" />
        </mxCell>
        <mxCell id="yGzMHYDaNf_yrKZ207rC-121" value="(0,N)" style="text;html=1;strokeColor=none;fillColor=none;align=center;verticalAlign=middle;whiteSpace=wrap;rounded=0;fontColor=#000000;" parent="1" vertex="1">
          <mxGeometry x="823.75" y="641" width="60" height="30" as="geometry" />
        </mxCell>
        <mxCell id="yGzMHYDaNf_yrKZ207rC-122" value="N" style="text;html=1;strokeColor=none;fillColor=none;align=center;verticalAlign=middle;whiteSpace=wrap;rounded=0;fontColor=#000000;" parent="1" vertex="1">
          <mxGeometry x="558.75" y="380" width="60" height="30" as="geometry" />
        </mxCell>
        <mxCell id="yGzMHYDaNf_yrKZ207rC-123" value="N" style="text;html=1;strokeColor=none;fillColor=none;align=center;verticalAlign=middle;whiteSpace=wrap;rounded=0;fontColor=#000000;" parent="1" vertex="1">
          <mxGeometry x="826.25" y="615" width="60" height="30" as="geometry" />
        </mxCell>
        <mxCell id="yGzMHYDaNf_yrKZ207rC-124" value="ISSN" style="ellipse;whiteSpace=wrap;html=1;fillColor=#182E3E;strokeColor=#FFFFFF;fontColor=#FFFFFF;" parent="1" vertex="1">
          <mxGeometry x="870.75" y="785.27" width="55" height="34.92" as="geometry" />
        </mxCell>
        <mxCell id="yGzMHYDaNf_yrKZ207rC-125" value="" style="endArrow=none;html=1;rounded=0;strokeColor=#23445D;fontColor=#000000;exitX=0;exitY=0.5;exitDx=0;exitDy=0;entryX=1;entryY=0.5;entryDx=0;entryDy=0;" parent="1" source="yGzMHYDaNf_yrKZ207rC-124" target="yGzMHYDaNf_yrKZ207rC-58" edge="1">
          <mxGeometry width="50" height="50" relative="1" as="geometry">
            <mxPoint x="789.9200000000001" y="745.1500000000001" as="sourcePoint" />
            <mxPoint x="749.9200000000001" y="735.1500000000001" as="targetPoint" />
          </mxGeometry>
        </mxCell>
        <mxCell id="yGzMHYDaNf_yrKZ207rC-126" value="GESTIONE" style="rhombus;whiteSpace=wrap;html=1;fillColor=#182E3E;strokeColor=#FFFFFF;fontColor=#FFFFFF;" parent="1" vertex="1">
          <mxGeometry x="358.3299999999999" y="315" width="100" height="80" as="geometry" />
        </mxCell>
        <mxCell id="yGzMHYDaNf_yrKZ207rC-127" value="LIBRERIA" style="rounded=0;whiteSpace=wrap;html=1;fillColor=#182E3E;strokeColor=#FFFFFF;fontColor=#FFFFFF;" parent="1" vertex="1">
          <mxGeometry x="176.25" y="331.71000000000004" width="110" height="50" as="geometry" />
        </mxCell>
        <mxCell id="yGzMHYDaNf_yrKZ207rC-128" value="" style="endArrow=none;html=1;rounded=0;entryX=0;entryY=0.5;entryDx=0;entryDy=0;" parent="1" source="yGzMHYDaNf_yrKZ207rC-127" target="yGzMHYDaNf_yrKZ207rC-126" edge="1">
          <mxGeometry width="50" height="50" relative="1" as="geometry">
            <mxPoint x="641.25" y="440" as="sourcePoint" />
            <mxPoint x="691.25" y="390" as="targetPoint" />
          </mxGeometry>
        </mxCell>
        <mxCell id="yGzMHYDaNf_yrKZ207rC-129" value="" style="endArrow=none;html=1;rounded=0;entryX=0;entryY=0.5;entryDx=0;entryDy=0;exitX=1;exitY=0.5;exitDx=0;exitDy=0;" parent="1" source="yGzMHYDaNf_yrKZ207rC-126" target="yGzMHYDaNf_yrKZ207rC-112" edge="1">
          <mxGeometry width="50" height="50" relative="1" as="geometry">
            <mxPoint x="461.25" y="355" as="sourcePoint" />
            <mxPoint x="516.09" y="354.5" as="targetPoint" />
          </mxGeometry>
        </mxCell>
        <mxCell id="yGzMHYDaNf_yrKZ207rC-130" value="(1,1)" style="text;html=1;strokeColor=none;fillColor=none;align=center;verticalAlign=middle;whiteSpace=wrap;rounded=0;" parent="1" vertex="1">
          <mxGeometry x="286.25" y="329.71000000000004" width="60" height="30" as="geometry" />
        </mxCell>
        <mxCell id="yGzMHYDaNf_yrKZ207rC-131" value="(1,N)" style="text;html=1;strokeColor=none;fillColor=none;align=center;verticalAlign=middle;whiteSpace=wrap;rounded=0;" parent="1" vertex="1">
          <mxGeometry x="462.5" y="324.71000000000004" width="60" height="30" as="geometry" />
        </mxCell>
        <mxCell id="yGzMHYDaNf_yrKZ207rC-132" value="N" style="text;html=1;strokeColor=none;fillColor=none;align=center;verticalAlign=middle;whiteSpace=wrap;rounded=0;fontColor=#000000;" parent="1" vertex="1">
          <mxGeometry x="286.25" y="351.71000000000004" width="60" height="30" as="geometry" />
        </mxCell>
        <mxCell id="yGzMHYDaNf_yrKZ207rC-133" value="1" style="text;html=1;strokeColor=none;fillColor=none;align=center;verticalAlign=middle;whiteSpace=wrap;rounded=0;fontColor=#000000;" parent="1" vertex="1">
          <mxGeometry x="462.5" y="351.71000000000004" width="60" height="30" as="geometry" />
        </mxCell>
        <mxCell id="yGzMHYDaNf_yrKZ207rC-134" value="Nome" style="ellipse;whiteSpace=wrap;html=1;fillColor=#182E3E;strokeColor=#FFFFFF;fontColor=#FFFFFF;" parent="1" vertex="1">
          <mxGeometry x="193.63" y="230" width="75.24" height="45.79" as="geometry" />
        </mxCell>
        <mxCell id="yGzMHYDaNf_yrKZ207rC-135" value="" style="endArrow=none;html=1;rounded=0;exitX=0.5;exitY=1;exitDx=0;exitDy=0;labelBackgroundColor=#FCE7CD;strokeColor=#23445D;" parent="1" source="yGzMHYDaNf_yrKZ207rC-134" target="yGzMHYDaNf_yrKZ207rC-127" edge="1">
          <mxGeometry width="50" height="50" relative="1" as="geometry">
            <mxPoint x="246.82000000000005" y="264.65999999999997" as="sourcePoint" />
            <mxPoint x="207.82999999999993" y="331.71000000000004" as="targetPoint" />
          </mxGeometry>
        </mxCell>
        <mxCell id="yGzMHYDaNf_yrKZ207rC-136" value="Indirizzo" style="ellipse;whiteSpace=wrap;html=1;fillColor=#182E3E;strokeColor=#FFFFFF;fontColor=#FFFFFF;" parent="1" vertex="1">
          <mxGeometry x="276.25" y="260.71000000000004" width="70" height="40" as="geometry" />
        </mxCell>
        <mxCell id="yGzMHYDaNf_yrKZ207rC-137" value="" style="endArrow=none;html=1;rounded=0;exitX=0.75;exitY=0;exitDx=0;exitDy=0;entryX=0;entryY=1;entryDx=0;entryDy=0;" parent="1" source="yGzMHYDaNf_yrKZ207rC-127" target="yGzMHYDaNf_yrKZ207rC-136" edge="1">
          <mxGeometry width="50" height="50" relative="1" as="geometry">
            <mxPoint x="666.25" y="441.71000000000004" as="sourcePoint" />
            <mxPoint x="716.25" y="391.71000000000004" as="targetPoint" />
          </mxGeometry>
        </mxCell>
        <mxCell id="yGzMHYDaNf_yrKZ207rC-138" value="NumeroTelefonico" style="ellipse;whiteSpace=wrap;html=1;fillColor=#182E3E;strokeColor=#FFFFFF;fontColor=#FFFFFF;" parent="1" vertex="1">
          <mxGeometry x="60" y="250" width="126.25" height="60.71" as="geometry" />
        </mxCell>
        <mxCell id="yGzMHYDaNf_yrKZ207rC-139" value="" style="endArrow=none;html=1;rounded=0;exitX=1;exitY=1;exitDx=0;exitDy=0;entryX=0.25;entryY=0;entryDx=0;entryDy=0;" parent="1" source="yGzMHYDaNf_yrKZ207rC-138" target="yGzMHYDaNf_yrKZ207rC-127" edge="1">
          <mxGeometry width="50" height="50" relative="1" as="geometry">
            <mxPoint x="666.25" y="441.71000000000004" as="sourcePoint" />
            <mxPoint x="716.25" y="391.71000000000004" as="targetPoint" />
          </mxGeometry>
        </mxCell>
        <mxCell id="yGzMHYDaNf_yrKZ207rC-140" value="Mail" style="ellipse;whiteSpace=wrap;html=1;fillColor=#182E3E;strokeColor=#FFFFFF;fontColor=#FFFFFF;" parent="1" vertex="1">
          <mxGeometry x="562.4999999999999" y="170" width="70" height="40" as="geometry" />
        </mxCell>
        <mxCell id="yGzMHYDaNf_yrKZ207rC-141" value="" style="endArrow=none;html=1;rounded=0;exitX=1;exitY=0;exitDx=0;exitDy=0;entryX=0;entryY=0.75;entryDx=0;entryDy=0;" parent="1" source="yGzMHYDaNf_yrKZ207rC-140" target="yGzMHYDaNf_yrKZ207rC-93" edge="1">
          <mxGeometry width="50" height="50" relative="1" as="geometry">
            <mxPoint x="641.25" y="210" as="sourcePoint" />
            <mxPoint x="691.25" y="160" as="targetPoint" />
          </mxGeometry>
        </mxCell>
        <mxCell id="yGzMHYDaNf_yrKZ207rC-142" value="SitoWeb" style="ellipse;whiteSpace=wrap;html=1;fillColor=#182E3E;strokeColor=#FFFFFF;fontColor=#FFFFFF;" parent="1" vertex="1">
          <mxGeometry x="76.25" y="361.71000000000004" width="80" height="39" as="geometry" />
        </mxCell>
        <mxCell id="yGzMHYDaNf_yrKZ207rC-143" value="" style="endArrow=none;html=1;rounded=0;exitX=0.765;exitY=0.117;exitDx=0;exitDy=0;exitPerimeter=0;entryX=0;entryY=0.5;entryDx=0;entryDy=0;" parent="1" source="yGzMHYDaNf_yrKZ207rC-142" target="yGzMHYDaNf_yrKZ207rC-127" edge="1">
          <mxGeometry width="50" height="50" relative="1" as="geometry">
            <mxPoint x="346.25" y="441.71000000000004" as="sourcePoint" />
            <mxPoint x="396.25" y="391.71000000000004" as="targetPoint" />
          </mxGeometry>
        </mxCell>
        <mxCell id="yGzMHYDaNf_yrKZ207rC-144" value="" style="endArrow=none;html=1;rounded=0;exitX=1;exitY=0.5;exitDx=0;exitDy=0;entryX=0;entryY=0;entryDx=0;entryDy=0;" parent="1" source="yGzMHYDaNf_yrKZ207rC-17" target="yGzMHYDaNf_yrKZ207rC-113" edge="1">
          <mxGeometry width="50" height="50" relative="1" as="geometry">
            <mxPoint x="621.25" y="550" as="sourcePoint" />
            <mxPoint x="671.25" y="500" as="targetPoint" />
          </mxGeometry>
        </mxCell>
        <mxCell id="yGzMHYDaNf_yrKZ207rC-145" value="Quantità" style="ellipse;whiteSpace=wrap;html=1;fillColor=#182E3E;strokeColor=#FFFFFF;fontColor=#FFFFFF;" parent="1" vertex="1">
          <mxGeometry x="426.25" y="510.58000000000004" width="90" height="49.42" as="geometry" />
        </mxCell>
        <mxCell id="yGzMHYDaNf_yrKZ207rC-146" value="" style="endArrow=none;html=1;rounded=0;exitX=1;exitY=0.5;exitDx=0;exitDy=0;entryX=0;entryY=1;entryDx=0;entryDy=0;" parent="1" source="yGzMHYDaNf_yrKZ207rC-145" target="yGzMHYDaNf_yrKZ207rC-113" edge="1">
          <mxGeometry width="50" height="50" relative="1" as="geometry">
            <mxPoint x="621.25" y="550" as="sourcePoint" />
            <mxPoint x="671.25" y="500" as="targetPoint" />
          </mxGeometry>
        </mxCell>
        <mxCell id="yGzMHYDaNf_yrKZ207rC-153" value="Valutazione" style="ellipse;whiteSpace=wrap;html=1;fillColor=#182E3E;strokeColor=#FFFFFF;fontColor=#FFFFFF;" parent="1" vertex="1">
          <mxGeometry x="786.25" y="474.1" width="80" height="41.79" as="geometry" />
        </mxCell>
        <mxCell id="yGzMHYDaNf_yrKZ207rC-154" value="" style="endArrow=none;html=1;rounded=0;exitX=1;exitY=0.5;exitDx=0;exitDy=0;entryX=0;entryY=1;entryDx=0;entryDy=0;" parent="1" source="yGzMHYDaNf_yrKZ207rC-153" target="yGzMHYDaNf_yrKZ207rC-100" edge="1">
          <mxGeometry width="50" height="50" relative="1" as="geometry">
            <mxPoint x="981.25" y="550" as="sourcePoint" />
            <mxPoint x="1031.25" y="500" as="targetPoint" />
          </mxGeometry>
        </mxCell>
        <mxCell id="yGzMHYDaNf_yrKZ207rC-173" value="" style="endArrow=none;html=1;rounded=0;exitX=0;exitY=0.5;exitDx=0;exitDy=0;" parent="1" source="yGzMHYDaNf_yrKZ207rC-58" edge="1">
          <mxGeometry width="50" height="50" relative="1" as="geometry">
            <mxPoint x="731.25" y="730" as="sourcePoint" />
            <mxPoint x="645" y="802.5" as="targetPoint" />
          </mxGeometry>
        </mxCell>
        <mxCell id="yGzMHYDaNf_yrKZ207rC-174" value="" style="endArrow=none;html=1;rounded=0;entryX=0;entryY=0.5;entryDx=0;entryDy=0;exitX=1;exitY=0.5;exitDx=0;exitDy=0;" parent="1" source="yGzMHYDaNf_yrKZ207rC-3" edge="1">
          <mxGeometry width="50" height="50" relative="1" as="geometry">
            <mxPoint x="461.25" y="810" as="sourcePoint" />
            <mxPoint x="527.5" y="802.5" as="targetPoint" />
          </mxGeometry>
        </mxCell>
        <mxCell id="yGzMHYDaNf_yrKZ207rC-175" value="Autore" style="ellipse;shape=doubleEllipse;whiteSpace=wrap;html=1;fillColor=#182E3E;strokeColor=#FFFFFF;fontColor=#FFFFFF;" parent="1" vertex="1">
          <mxGeometry x="332.5" y="665.23" width="100" height="60" as="geometry" />
        </mxCell>
        <mxCell id="yGzMHYDaNf_yrKZ207rC-176" value="DataNascita" style="ellipse;whiteSpace=wrap;html=1;fillColor=#182E3E;strokeColor=#FFFFFF;fontColor=#FFFFFF;" parent="1" vertex="1">
          <mxGeometry x="230" y="605" width="95" height="50" as="geometry" />
        </mxCell>
        <mxCell id="yGzMHYDaNf_yrKZ207rC-177" value="CodiceFiscale" style="ellipse;whiteSpace=wrap;html=1;fillColor=#182E3E;strokeColor=#FFFFFF;fontColor=#FFFFFF;" parent="1" vertex="1">
          <mxGeometry x="433.8299999999999" y="607.26" width="95" height="50" as="geometry" />
        </mxCell>
        <mxCell id="yGzMHYDaNf_yrKZ207rC-178" value="" style="endArrow=none;html=1;rounded=0;entryX=0;entryY=1;entryDx=0;entryDy=0;exitX=1;exitY=0;exitDx=0;exitDy=0;labelBackgroundColor=#FCE7CD;strokeColor=#23445D;" parent="1" source="yGzMHYDaNf_yrKZ207rC-175" target="yGzMHYDaNf_yrKZ207rC-177" edge="1">
          <mxGeometry width="50" height="50" relative="1" as="geometry">
            <mxPoint x="398.82533905932746" y="601.2132034355967" as="sourcePoint" />
            <mxPoint x="423.47" y="670" as="targetPoint" />
          </mxGeometry>
        </mxCell>
        <mxCell id="yGzMHYDaNf_yrKZ207rC-179" value="Nazionalità" style="ellipse;whiteSpace=wrap;html=1;strokeColor=#FFFFFF;fontColor=#FFFFFF;fillColor=#182E3E;" parent="1" vertex="1">
          <mxGeometry x="335" y="585.5799999999999" width="95" height="50" as="geometry" />
        </mxCell>
        <mxCell id="yGzMHYDaNf_yrKZ207rC-180" value="" style="endArrow=none;html=1;rounded=0;strokeColor=#23445D;exitX=0.5;exitY=0;exitDx=0;exitDy=0;entryX=0.5;entryY=1;entryDx=0;entryDy=0;" parent="1" source="yGzMHYDaNf_yrKZ207rC-175" target="yGzMHYDaNf_yrKZ207rC-179" edge="1">
          <mxGeometry width="50" height="50" relative="1" as="geometry">
            <mxPoint x="325.08000000000004" y="663.6700000000001" as="sourcePoint" />
            <mxPoint x="352.5799999999999" y="600" as="targetPoint" />
          </mxGeometry>
        </mxCell>
        <mxCell id="yGzMHYDaNf_yrKZ207rC-186" value="" style="endArrow=none;html=1;rounded=0;exitX=0;exitY=0;exitDx=0;exitDy=0;entryX=1;entryY=1;entryDx=0;entryDy=0;" parent="1" source="yGzMHYDaNf_yrKZ207rC-175" target="yGzMHYDaNf_yrKZ207rC-176" edge="1">
          <mxGeometry width="50" height="50" relative="1" as="geometry">
            <mxPoint x="311.25" y="550" as="sourcePoint" />
            <mxPoint x="361.25" y="500" as="targetPoint" />
          </mxGeometry>
        </mxCell>
        <mxCell id="yGzMHYDaNf_yrKZ207rC-188" value="" style="endArrow=none;html=1;rounded=0;entryX=0.5;entryY=0;entryDx=0;entryDy=0;exitX=0.5;exitY=1;exitDx=0;exitDy=0;" parent="1" source="yGzMHYDaNf_yrKZ207rC-175" target="yGzMHYDaNf_yrKZ207rC-3" edge="1">
          <mxGeometry width="50" height="50" relative="1" as="geometry">
            <mxPoint x="351.25" y="820" as="sourcePoint" />
            <mxPoint x="401.25" y="770" as="targetPoint" />
          </mxGeometry>
        </mxCell>
        <mxCell id="yGzMHYDaNf_yrKZ207rC-189" value="&lt;font color=&quot;#f5f5f5&quot;&gt;PRESENTAZIONE&lt;/font&gt;" style="shape=rhombus;perimeter=rhombusPerimeter;whiteSpace=wrap;html=1;align=center;fillColor=#182E3E;fillStyle=auto;strokeColor=#F5F5F5;" parent="1" vertex="1">
          <mxGeometry x="306.66999999999996" y="879" width="151.66" height="91" as="geometry" />
        </mxCell>
        <mxCell id="yGzMHYDaNf_yrKZ207rC-190" value="" style="endArrow=none;html=1;rounded=0;entryX=0.5;entryY=1;entryDx=0;entryDy=0;labelBackgroundColor=#FCE7CD;strokeColor=#23445D;fontColor=#000000;" parent="1" source="yGzMHYDaNf_yrKZ207rC-189" target="yGzMHYDaNf_yrKZ207rC-3" edge="1">
          <mxGeometry width="50" height="50" relative="1" as="geometry">
            <mxPoint x="204.15999999999997" y="852.73" as="sourcePoint" />
            <mxPoint x="374.15999999999997" y="842.7300000000002" as="targetPoint" />
          </mxGeometry>
        </mxCell>
        <mxCell id="yGzMHYDaNf_yrKZ207rC-191" value="" style="endArrow=none;html=1;rounded=0;entryX=0.51;entryY=0.968;entryDx=0;entryDy=0;entryPerimeter=0;labelBackgroundColor=#FCE7CD;strokeColor=#23445D;fontColor=#000000;" parent="1" source="yGzMHYDaNf_yrKZ207rC-59" target="yGzMHYDaNf_yrKZ207rC-189" edge="1">
          <mxGeometry width="50" height="50" relative="1" as="geometry">
            <mxPoint x="374.15999999999997" y="1002.73" as="sourcePoint" />
            <mxPoint x="254.15999999999997" y="942.73" as="targetPoint" />
          </mxGeometry>
        </mxCell>
        <mxCell id="yGzMHYDaNf_yrKZ207rC-192" value="N" style="text;html=1;strokeColor=none;fillColor=none;align=center;verticalAlign=middle;whiteSpace=wrap;rounded=0;fontColor=#000000;" parent="1" vertex="1">
          <mxGeometry x="380.7099999999999" y="972.73" width="60" height="30" as="geometry" />
        </mxCell>
        <mxCell id="yGzMHYDaNf_yrKZ207rC-193" value="N" style="text;html=1;strokeColor=none;fillColor=none;align=center;verticalAlign=middle;whiteSpace=wrap;rounded=0;fontColor=#000000;" parent="1" vertex="1">
          <mxGeometry x="380.71000000000004" y="840" width="60" height="30" as="geometry" />
        </mxCell>
        <mxCell id="yGzMHYDaNf_yrKZ207rC-194" value="(0,N)" style="text;html=1;strokeColor=none;fillColor=none;align=center;verticalAlign=middle;whiteSpace=wrap;rounded=0;fontColor=#000000;" parent="1" vertex="1">
          <mxGeometry x="320.71000000000004" y="837.5" width="60" height="30" as="geometry" />
        </mxCell>
        <mxCell id="yGzMHYDaNf_yrKZ207rC-195" value="(1,N)" style="text;html=1;strokeColor=none;fillColor=none;align=center;verticalAlign=middle;whiteSpace=wrap;rounded=0;fontColor=#000000;" parent="1" vertex="1">
          <mxGeometry x="316.5" y="972" width="60" height="30" as="geometry" />
        </mxCell>
        <mxCell id="yGzMHYDaNf_yrKZ207rC-196" value="(0,N)" style="text;html=1;strokeColor=none;fillColor=none;align=center;verticalAlign=middle;whiteSpace=wrap;rounded=0;fontColor=#000000;" parent="1" vertex="1">
          <mxGeometry x="450.66999999999996" y="772.73" width="60" height="30" as="geometry" />
        </mxCell>
        <mxCell id="yGzMHYDaNf_yrKZ207rC-197" value="N" style="text;html=1;strokeColor=none;fillColor=none;align=center;verticalAlign=middle;whiteSpace=wrap;rounded=0;fontColor=#000000;" parent="1" vertex="1">
          <mxGeometry x="451.25" y="799.8499999999999" width="60" height="30" as="geometry" />
        </mxCell>
        <mxCell id="yGzMHYDaNf_yrKZ207rC-198" value="(1,N)" style="text;html=1;strokeColor=none;fillColor=none;align=center;verticalAlign=middle;whiteSpace=wrap;rounded=0;fontColor=#000000;" parent="1" vertex="1">
          <mxGeometry x="681.25" y="772.73" width="60" height="30" as="geometry" />
        </mxCell>
        <mxCell id="yGzMHYDaNf_yrKZ207rC-199" value="N" style="text;html=1;strokeColor=none;fillColor=none;align=center;verticalAlign=middle;whiteSpace=wrap;rounded=0;fontColor=#000000;" parent="1" vertex="1">
          <mxGeometry x="687.0899999999999" y="798.73" width="60" height="30" as="geometry" />
        </mxCell>
        <mxCell id="yGzMHYDaNf_yrKZ207rC-200" value="&lt;font color=&quot;#f5f5f5&quot;&gt;PARTECIPAZIONE&lt;/font&gt;" style="shape=rhombus;double=1;perimeter=rhombusPerimeter;whiteSpace=wrap;html=1;align=center;fillColor=#182E3E;fillStyle=auto;strokeColor=#F5F5F5;" parent="1" vertex="1">
          <mxGeometry x="1051.25" y="872.73" width="173.34" height="93.73" as="geometry" />
        </mxCell>
        <mxCell id="yGzMHYDaNf_yrKZ207rC-201" value="PRESENTAZIONE" style="shape=ext;margin=3;double=1;whiteSpace=wrap;html=1;align=center;fillStyle=auto;strokeColor=#F5F5F5;fontColor=#F5F5F5;fillColor=#182E3E;" parent="1" vertex="1">
          <mxGeometry x="1074.17" y="998" width="127.5" height="66.27" as="geometry" />
        </mxCell>
        <mxCell id="yGzMHYDaNf_yrKZ207rC-202" value="&lt;font color=&quot;#f5f5f5&quot;&gt;COMPOSIZIONE&lt;/font&gt;" style="shape=rhombus;double=1;perimeter=rhombusPerimeter;whiteSpace=wrap;html=1;align=center;fillColor=#182E3E;fillStyle=auto;strokeColor=#F5F5F5;" parent="1" vertex="1">
          <mxGeometry x="510.88" y="760" width="152.42" height="82" as="geometry" />
        </mxCell>
        <mxCell id="yGzMHYDaNf_yrKZ207rC-203" value="SERIE" style="shape=ext;margin=3;double=1;whiteSpace=wrap;html=1;align=center;fillStyle=auto;strokeColor=#F5F5F5;fontColor=#F5F5F5;fillColor=#182E3E;" parent="1" vertex="1">
          <mxGeometry x="871.5899999999999" y="964.73" width="118.33" height="59.92" as="geometry" />
        </mxCell>
        <mxCell id="yGzMHYDaNf_yrKZ207rC-204" value="&lt;font color=&quot;#f5f5f5&quot;&gt;INSERIMENTO&lt;/font&gt;" style="shape=rhombus;double=1;perimeter=rhombusPerimeter;whiteSpace=wrap;html=1;align=center;fillColor=#182E3E;fillStyle=auto;strokeColor=#F5F5F5;" parent="1" vertex="1">
          <mxGeometry x="960.4200000000001" y="829.8499999999999" width="120" height="80" as="geometry" />
        </mxCell>
        <mxCell id="yGzMHYDaNf_yrKZ207rC-205" value="" style="endArrow=none;html=1;rounded=0;entryX=0.5;entryY=0;entryDx=0;entryDy=0;" parent="1" source="yGzMHYDaNf_yrKZ207rC-4" target="yGzMHYDaNf_yrKZ207rC-204" edge="1">
          <mxGeometry width="50" height="50" relative="1" as="geometry">
            <mxPoint x="1282.92" y="663.73" as="sourcePoint" />
            <mxPoint x="1292.0100000000002" y="673.7300000000002" as="targetPoint" />
            <Array as="points">
              <mxPoint x="1020" y="804" />
            </Array>
          </mxGeometry>
        </mxCell>
        <mxCell id="yGzMHYDaNf_yrKZ207rC-206" value="" style="endArrow=none;html=1;rounded=0;entryX=0;entryY=0;entryDx=0;entryDy=0;exitX=1;exitY=0.25;exitDx=0;exitDy=0;" parent="1" source="yGzMHYDaNf_yrKZ207rC-36" target="yGzMHYDaNf_yrKZ207rC-51" edge="1">
          <mxGeometry width="50" height="50" relative="1" as="geometry">
            <mxPoint x="1072.92" y="793.73" as="sourcePoint" />
            <mxPoint x="1122.92" y="743.73" as="targetPoint" />
          </mxGeometry>
        </mxCell>
        <mxCell id="yGzMHYDaNf_yrKZ207rC-207" value="" style="endArrow=none;html=1;rounded=0;exitX=0.5;exitY=0;exitDx=0;exitDy=0;entryX=0.5;entryY=1;entryDx=0;entryDy=0;" parent="1" source="yGzMHYDaNf_yrKZ207rC-203" target="yGzMHYDaNf_yrKZ207rC-30" edge="1">
          <mxGeometry width="50" height="50" relative="1" as="geometry">
            <mxPoint x="981.25" y="800" as="sourcePoint" />
            <mxPoint x="1031.25" y="750" as="targetPoint" />
          </mxGeometry>
        </mxCell>
        <mxCell id="yGzMHYDaNf_yrKZ207rC-208" value="" style="endArrow=none;html=1;rounded=0;exitX=1;exitY=0.5;exitDx=0;exitDy=0;entryX=0.5;entryY=1;entryDx=0;entryDy=0;" parent="1" source="yGzMHYDaNf_yrKZ207rC-203" target="yGzMHYDaNf_yrKZ207rC-204" edge="1">
          <mxGeometry width="50" height="50" relative="1" as="geometry">
            <mxPoint x="971.25" y="960" as="sourcePoint" />
            <mxPoint x="1021.25" y="910" as="targetPoint" />
            <Array as="points">
              <mxPoint x="1020" y="995" />
            </Array>
          </mxGeometry>
        </mxCell>
        <mxCell id="yGzMHYDaNf_yrKZ207rC-209" value="N" style="text;html=1;strokeColor=none;fillColor=none;align=center;verticalAlign=middle;whiteSpace=wrap;rounded=0;fontColor=#000000;" parent="1" vertex="1">
          <mxGeometry x="1032.93" y="778.73" width="60" height="30" as="geometry" />
        </mxCell>
        <mxCell id="yGzMHYDaNf_yrKZ207rC-210" value="1" style="text;html=1;strokeColor=none;fillColor=none;align=center;verticalAlign=middle;whiteSpace=wrap;rounded=0;fontColor=#000000;" parent="1" vertex="1">
          <mxGeometry x="972.9300000000001" y="967.9999999999999" width="60" height="30" as="geometry" />
        </mxCell>
        <mxCell id="yGzMHYDaNf_yrKZ207rC-211" value="" style="shape=requiredInterface;html=1;verticalLabelPosition=bottom;sketch=0;strokeColor=#000000;fontColor=#000000;fillColor=none;rotation=90;" parent="1" vertex="1">
          <mxGeometry x="925.75" y="833.25" width="10" height="10" as="geometry" />
        </mxCell>
        <mxCell id="yGzMHYDaNf_yrKZ207rC-212" value="Ordine" style="ellipse;whiteSpace=wrap;html=1;fillColor=#182E3E;strokeColor=#FFFFFF;fontColor=#FFFFFF;" parent="1" vertex="1">
          <mxGeometry x="943.09" y="902.27" width="56.5" height="34.65" as="geometry" />
        </mxCell>
        <mxCell id="yGzMHYDaNf_yrKZ207rC-213" value="" style="endArrow=none;html=1;rounded=0;entryX=0;entryY=1;entryDx=0;entryDy=0;exitX=0.5;exitY=0;exitDx=0;exitDy=0;" parent="1" source="yGzMHYDaNf_yrKZ207rC-212" target="yGzMHYDaNf_yrKZ207rC-204" edge="1">
          <mxGeometry width="50" height="50" relative="1" as="geometry">
            <mxPoint x="821.25" y="890" as="sourcePoint" />
            <mxPoint x="871.25" y="840" as="targetPoint" />
          </mxGeometry>
        </mxCell>
        <mxCell id="yGzMHYDaNf_yrKZ207rC-216" value="NLibri" style="ellipse;whiteSpace=wrap;html=1;fillColor=#182E3E;strokeColor=#FFFFFF;fontColor=#FFFFFF;" parent="1" vertex="1">
          <mxGeometry x="854.75" y="1047" width="56.5" height="34.65" as="geometry" />
        </mxCell>
        <mxCell id="yGzMHYDaNf_yrKZ207rC-217" value="" style="endArrow=none;html=1;rounded=0;exitX=0.5;exitY=0;exitDx=0;exitDy=0;entryX=0.25;entryY=1;entryDx=0;entryDy=0;" parent="1" source="yGzMHYDaNf_yrKZ207rC-216" target="yGzMHYDaNf_yrKZ207rC-203" edge="1">
          <mxGeometry width="50" height="50" relative="1" as="geometry">
            <mxPoint x="931.25" y="1020" as="sourcePoint" />
            <mxPoint x="981.25" y="970" as="targetPoint" />
          </mxGeometry>
        </mxCell>
        <mxCell id="yGzMHYDaNf_yrKZ207rC-218" value="(0,1)" style="text;html=1;strokeColor=none;fillColor=none;align=center;verticalAlign=middle;whiteSpace=wrap;rounded=0;fontColor=#000000;" parent="1" vertex="1">
          <mxGeometry x="1026.25" y="799.8499999999999" width="60" height="30" as="geometry" />
        </mxCell>
        <mxCell id="yGzMHYDaNf_yrKZ207rC-219" value="(2,N)" style="text;html=1;strokeColor=none;fillColor=none;align=center;verticalAlign=middle;whiteSpace=wrap;rounded=0;fontColor=#000000;" parent="1" vertex="1">
          <mxGeometry x="972.9300000000001" y="991.2699999999999" width="60" height="30" as="geometry" />
        </mxCell>
        <mxCell id="yGzMHYDaNf_yrKZ207rC-222" value="AnnoPubblicazione" style="ellipse;whiteSpace=wrap;html=1;fillColor=#182E3E;strokeColor=#FFFFFF;fontColor=#FFFFFF;" parent="1" vertex="1">
          <mxGeometry x="446.1700000000001" y="684.0699999999999" width="120" height="45.58" as="geometry" />
        </mxCell>
        <mxCell id="yGzMHYDaNf_yrKZ207rC-223" value="" style="endArrow=none;html=1;rounded=0;exitX=0.75;exitY=0;exitDx=0;exitDy=0;entryX=0;entryY=1;entryDx=0;entryDy=0;" parent="1" source="yGzMHYDaNf_yrKZ207rC-3" target="yGzMHYDaNf_yrKZ207rC-222" edge="1">
          <mxGeometry width="50" height="50" relative="1" as="geometry">
            <mxPoint x="561.25" y="710" as="sourcePoint" />
            <mxPoint x="611.25" y="660" as="targetPoint" />
          </mxGeometry>
        </mxCell>
        <mxCell id="yGzMHYDaNf_yrKZ207rC-224" value="" style="endArrow=none;html=1;rounded=0;entryX=0.25;entryY=1;entryDx=0;entryDy=0;exitX=0.5;exitY=0;exitDx=0;exitDy=0;" parent="1" source="yGzMHYDaNf_yrKZ207rC-71" target="yGzMHYDaNf_yrKZ207rC-58" edge="1">
          <mxGeometry width="50" height="50" relative="1" as="geometry">
            <mxPoint x="691.25" y="990" as="sourcePoint" />
            <mxPoint x="741.25" y="940" as="targetPoint" />
          </mxGeometry>
        </mxCell>
        <mxCell id="yGzMHYDaNf_yrKZ207rC-227" value="ISSN" style="ellipse;whiteSpace=wrap;html=1;fillColor=#182E3E;strokeColor=#FFFFFF;fontColor=#FFFFFF;" parent="1" vertex="1">
          <mxGeometry x="1470.42" y="715.0799999999999" width="55" height="34.92" as="geometry" />
        </mxCell>
        <mxCell id="yGzMHYDaNf_yrKZ207rC-228" value="" style="endArrow=none;html=1;rounded=0;strokeColor=#23445D;fontColor=#000000;exitX=0.5;exitY=1;exitDx=0;exitDy=0;" parent="1" source="yGzMHYDaNf_yrKZ207rC-227" target="yGzMHYDaNf_yrKZ207rC-20" edge="1">
          <mxGeometry width="50" height="50" relative="1" as="geometry">
            <mxPoint x="940.6395837166515" y="1034.65" as="sourcePoint" />
            <mxPoint x="940.4200000000001" y="1091.6499999999999" as="targetPoint" />
          </mxGeometry>
        </mxCell>
        <mxCell id="yGzMHYDaNf_yrKZ207rC-229" value="Nome" style="ellipse;whiteSpace=wrap;html=1;fillColor=#182E3E;strokeColor=#FFFFFF;fontColor=#FFFFFF;" parent="1" vertex="1">
          <mxGeometry x="1472.51" y="868.5800000000002" width="50.83" height="31.16" as="geometry" />
        </mxCell>
        <mxCell id="yGzMHYDaNf_yrKZ207rC-230" value="" style="endArrow=none;html=1;rounded=0;entryX=0.5;entryY=1;entryDx=0;entryDy=0;exitX=0.5;exitY=0;exitDx=0;exitDy=0;" parent="1" source="yGzMHYDaNf_yrKZ207rC-229" target="yGzMHYDaNf_yrKZ207rC-20" edge="1">
          <mxGeometry width="50" height="50" relative="1" as="geometry">
            <mxPoint x="1060" y="910" as="sourcePoint" />
            <mxPoint x="1110" y="860" as="targetPoint" />
          </mxGeometry>
        </mxCell>
        <mxCell id="0Y3_s-NsQxyj2uwiEeTM-2" value="Solo le collane che vengono pubblicate periodicamente hanno un ISSN. Invece le collane non periodiche non hanno un ISSN, ma hanno un ISBN per ogni libro che gli appartiene" style="text;html=1;strokeColor=none;fillColor=none;align=center;verticalAlign=middle;whiteSpace=wrap;rounded=0;" parent="1" vertex="1">
          <mxGeometry x="1307.92" y="612.98" width="220" height="86.03" as="geometry" />
        </mxCell>
        <mxCell id="0Y3_s-NsQxyj2uwiEeTM-3" value="Solo le serie che vengono pubblicate periodicamente hanno un ISSN. Invece le serie non periodiche non hanno un ISSN, ma hanno un ISBN per ogni libro che gli appartiene" style="text;html=1;strokeColor=none;fillColor=none;align=center;verticalAlign=middle;whiteSpace=wrap;rounded=0;" parent="1" vertex="1">
          <mxGeometry x="812.93" y="1100" width="220" height="86.03" as="geometry" />
        </mxCell>
        <mxCell id="0Y3_s-NsQxyj2uwiEeTM-4" value="ISSN" style="ellipse;whiteSpace=wrap;html=1;fillColor=#182E3E;strokeColor=#FFFFFF;fontColor=#FFFFFF;" parent="1" vertex="1">
          <mxGeometry x="934.59" y="1053.73" width="55" height="34.92" as="geometry" />
        </mxCell>
        <mxCell id="0Y3_s-NsQxyj2uwiEeTM-5" value="" style="endArrow=none;html=1;rounded=0;exitX=0.5;exitY=1;exitDx=0;exitDy=0;entryX=0.5;entryY=0;entryDx=0;entryDy=0;" parent="1" source="yGzMHYDaNf_yrKZ207rC-203" target="0Y3_s-NsQxyj2uwiEeTM-4" edge="1">
          <mxGeometry width="50" height="50" relative="1" as="geometry">
            <mxPoint x="1030" y="1220" as="sourcePoint" />
            <mxPoint x="1080" y="1170" as="targetPoint" />
          </mxGeometry>
        </mxCell>
        <mxCell id="PrsCmACceEziGPp9NvAK-1" value="Nome" style="ellipse;whiteSpace=wrap;html=1;fillColor=#182E3E;strokeColor=#FFFFFF;fontColor=#FFFFFF;" parent="1" vertex="1">
          <mxGeometry x="210" y="660" width="83.16" height="46.03" as="geometry" />
        </mxCell>
        <mxCell id="PrsCmACceEziGPp9NvAK-2" value="Cognome" style="ellipse;whiteSpace=wrap;html=1;fillColor=#182E3E;strokeColor=#FFFFFF;fontColor=#FFFFFF;" parent="1" vertex="1">
          <mxGeometry x="232.5000000000001" y="718" width="80" height="37.11" as="geometry" />
        </mxCell>
        <mxCell id="PrsCmACceEziGPp9NvAK-3" value="" style="endArrow=none;html=1;rounded=0;exitX=1;exitY=0.5;exitDx=0;exitDy=0;" parent="1" source="PrsCmACceEziGPp9NvAK-1" target="yGzMHYDaNf_yrKZ207rC-175" edge="1">
          <mxGeometry width="50" height="50" relative="1" as="geometry">
            <mxPoint x="550" y="590" as="sourcePoint" />
            <mxPoint x="600" y="540" as="targetPoint" />
          </mxGeometry>
        </mxCell>
        <mxCell id="PrsCmACceEziGPp9NvAK-4" value="" style="endArrow=none;html=1;rounded=0;exitX=1;exitY=0.5;exitDx=0;exitDy=0;entryX=0;entryY=1;entryDx=0;entryDy=0;" parent="1" source="PrsCmACceEziGPp9NvAK-2" target="yGzMHYDaNf_yrKZ207rC-175" edge="1">
          <mxGeometry width="50" height="50" relative="1" as="geometry">
            <mxPoint x="550" y="590" as="sourcePoint" />
            <mxPoint x="600" y="540" as="targetPoint" />
          </mxGeometry>
        </mxCell>
        <mxCell id="PrsCmACceEziGPp9NvAK-6" value="Nome" style="ellipse;whiteSpace=wrap;html=1;fillColor=#182E3E;strokeColor=#FFFFFF;fontColor=#FFFFFF;" parent="1" vertex="1">
          <mxGeometry x="986.25" y="590" width="63.75" height="35" as="geometry" />
        </mxCell>
        <mxCell id="PrsCmACceEziGPp9NvAK-7" value="Cognome" style="ellipse;whiteSpace=wrap;html=1;fillColor=#182E3E;strokeColor=#FFFFFF;fontColor=#FFFFFF;" parent="1" vertex="1">
          <mxGeometry x="951.2500000000001" y="684.07" width="80" height="37.11" as="geometry" />
        </mxCell>
        <mxCell id="PrsCmACceEziGPp9NvAK-8" value="" style="endArrow=none;html=1;rounded=0;entryX=0;entryY=0;entryDx=0;entryDy=0;exitX=0.561;exitY=1;exitDx=0;exitDy=0;exitPerimeter=0;" parent="1" source="PrsCmACceEziGPp9NvAK-6" target="yGzMHYDaNf_yrKZ207rC-9" edge="1">
          <mxGeometry width="50" height="50" relative="1" as="geometry">
            <mxPoint x="810" y="710" as="sourcePoint" />
            <mxPoint x="860" y="660" as="targetPoint" />
          </mxGeometry>
        </mxCell>
        <mxCell id="PrsCmACceEziGPp9NvAK-9" value="" style="endArrow=none;html=1;rounded=0;entryX=0;entryY=1;entryDx=0;entryDy=0;exitX=1;exitY=0;exitDx=0;exitDy=0;" parent="1" source="PrsCmACceEziGPp9NvAK-7" target="yGzMHYDaNf_yrKZ207rC-9" edge="1">
          <mxGeometry width="50" height="50" relative="1" as="geometry">
            <mxPoint x="810" y="710" as="sourcePoint" />
            <mxPoint x="860" y="660" as="targetPoint" />
          </mxGeometry>
        </mxCell>
        <mxCell id="PrsCmACceEziGPp9NvAK-10" value="PartitaIVA" style="ellipse;whiteSpace=wrap;html=1;fillColor=#182E3E;strokeColor=#FFFFFF;fontColor=#FFFFFF;" parent="1" vertex="1">
          <mxGeometry x="516.2499999999999" y="244" width="75.24" height="45.79" as="geometry" />
        </mxCell>
        <mxCell id="PrsCmACceEziGPp9NvAK-11" value="" style="endArrow=none;html=1;rounded=0;entryX=0.5;entryY=0;entryDx=0;entryDy=0;exitX=0.5;exitY=1;exitDx=0;exitDy=0;" parent="1" source="PrsCmACceEziGPp9NvAK-10" target="yGzMHYDaNf_yrKZ207rC-112" edge="1">
          <mxGeometry width="50" height="50" relative="1" as="geometry">
            <mxPoint x="630" y="350" as="sourcePoint" />
            <mxPoint x="680" y="300" as="targetPoint" />
          </mxGeometry>
        </mxCell>
        <mxCell id="XhCrg1R68w2tLpCAlJi1-1" value="Luogo" style="ellipse;whiteSpace=wrap;html=1;fillColor=#182E3E;strokeColor=#FFFFFF;fontColor=#FFFFFF;" vertex="1" parent="1">
          <mxGeometry x="1267.92" y="1021.27" width="70" height="40" as="geometry" />
        </mxCell>
        <mxCell id="XhCrg1R68w2tLpCAlJi1-3" value="LuogoPresentazione" style="ellipse;whiteSpace=wrap;html=1;fillColor=#182E3E;strokeColor=#FFFFFF;fontColor=#FFFFFF;" vertex="1" parent="1">
          <mxGeometry x="1202.92" y="1110" width="130" height="50" as="geometry" />
        </mxCell>
        <mxCell id="XhCrg1R68w2tLpCAlJi1-4" value="" style="endArrow=none;html=1;rounded=0;strokeColor=#23445D;fontColor=#000000;exitX=0.5;exitY=0;exitDx=0;exitDy=0;entryX=0.27;entryY=0.994;entryDx=0;entryDy=0;entryPerimeter=0;" edge="1" source="XhCrg1R68w2tLpCAlJi1-3" target="XhCrg1R68w2tLpCAlJi1-1" parent="1">
          <mxGeometry width="50" height="50" relative="1" as="geometry">
            <mxPoint x="1500.42" y="1192.38" as="sourcePoint" />
            <mxPoint x="1550.42" y="1142.38" as="targetPoint" />
          </mxGeometry>
        </mxCell>
        <mxCell id="XhCrg1R68w2tLpCAlJi1-5" value="StrutturaOrganizzatrice" style="ellipse;whiteSpace=wrap;html=1;fillColor=#182E3E;strokeColor=#FFFFFF;fontColor=#FFFFFF;" vertex="1" parent="1">
          <mxGeometry x="1342.92" y="1103.73" width="150" height="60" as="geometry" />
        </mxCell>
        <mxCell id="XhCrg1R68w2tLpCAlJi1-6" value="" style="endArrow=none;html=1;rounded=0;strokeColor=#23445D;fontColor=#000000;exitX=0.696;exitY=0.983;exitDx=0;exitDy=0;entryX=0;entryY=0;entryDx=0;entryDy=0;exitPerimeter=0;" edge="1" source="XhCrg1R68w2tLpCAlJi1-1" target="XhCrg1R68w2tLpCAlJi1-5" parent="1">
          <mxGeometry width="50" height="50" relative="1" as="geometry">
            <mxPoint x="1500.42" y="1192.38" as="sourcePoint" />
            <mxPoint x="1380" y="1080" as="targetPoint" />
          </mxGeometry>
        </mxCell>
        <mxCell id="XhCrg1R68w2tLpCAlJi1-7" value="Nazione" style="ellipse;whiteSpace=wrap;html=1;fillColor=#182E3E;strokeColor=#FFFFFF;fontColor=#FFFFFF;" vertex="1" parent="1">
          <mxGeometry x="1147.92" y="1173.73" width="70" height="40" as="geometry" />
        </mxCell>
        <mxCell id="XhCrg1R68w2tLpCAlJi1-8" value="" style="endArrow=none;html=1;rounded=0;strokeColor=#23445D;fontColor=#000000;entryX=0.282;entryY=0.969;entryDx=0;entryDy=0;exitX=1;exitY=0;exitDx=0;exitDy=0;entryPerimeter=0;" edge="1" source="XhCrg1R68w2tLpCAlJi1-7" target="XhCrg1R68w2tLpCAlJi1-3" parent="1">
          <mxGeometry width="50" height="50" relative="1" as="geometry">
            <mxPoint x="1162.92" y="1262.38" as="sourcePoint" />
            <mxPoint x="1212.92" y="1212.38" as="targetPoint" />
          </mxGeometry>
        </mxCell>
        <mxCell id="XhCrg1R68w2tLpCAlJi1-9" value="Città" style="ellipse;whiteSpace=wrap;html=1;fillColor=#182E3E;strokeColor=#FFFFFF;fontColor=#FFFFFF;" vertex="1" parent="1">
          <mxGeometry x="1232.92" y="1218.65" width="70" height="40" as="geometry" />
        </mxCell>
        <mxCell id="XhCrg1R68w2tLpCAlJi1-10" value="" style="endArrow=none;html=1;rounded=0;strokeColor=#23445D;fontColor=#000000;exitX=0.5;exitY=0;exitDx=0;exitDy=0;entryX=0.5;entryY=1;entryDx=0;entryDy=0;" edge="1" source="XhCrg1R68w2tLpCAlJi1-9" target="XhCrg1R68w2tLpCAlJi1-3" parent="1">
          <mxGeometry width="50" height="50" relative="1" as="geometry">
            <mxPoint x="1290.42" y="1282.38" as="sourcePoint" />
            <mxPoint x="1340.42" y="1232.38" as="targetPoint" />
          </mxGeometry>
        </mxCell>
        <mxCell id="XhCrg1R68w2tLpCAlJi1-11" value="Indirizzo" style="ellipse;whiteSpace=wrap;html=1;fillColor=#182E3E;strokeColor=#FFFFFF;fontColor=#FFFFFF;" vertex="1" parent="1">
          <mxGeometry x="1322.9199999999998" y="1178.65" width="70" height="40" as="geometry" />
        </mxCell>
        <mxCell id="XhCrg1R68w2tLpCAlJi1-12" value="" style="endArrow=none;html=1;rounded=0;strokeColor=#23445D;fontColor=#000000;exitX=0;exitY=0;exitDx=0;exitDy=0;" edge="1" source="XhCrg1R68w2tLpCAlJi1-11" target="XhCrg1R68w2tLpCAlJi1-3" parent="1">
          <mxGeometry width="50" height="50" relative="1" as="geometry">
            <mxPoint x="1315.42" y="1252.38" as="sourcePoint" />
            <mxPoint x="1365.42" y="1202.38" as="targetPoint" />
          </mxGeometry>
        </mxCell>
        <mxCell id="XhCrg1R68w2tLpCAlJi1-13" value="Titolo" style="ellipse;whiteSpace=wrap;html=1;fillColor=#182E3E;strokeColor=#FFFFFF;fontColor=#FFFFFF;" vertex="1" parent="1">
          <mxGeometry x="170" y="808.73" width="60" height="40" as="geometry" />
        </mxCell>
        <mxCell id="XhCrg1R68w2tLpCAlJi1-14" value="" style="endArrow=none;html=1;rounded=0;exitX=1;exitY=0.5;exitDx=0;exitDy=0;entryX=0;entryY=0.5;entryDx=0;entryDy=0;" edge="1" parent="1" source="XhCrg1R68w2tLpCAlJi1-13" target="yGzMHYDaNf_yrKZ207rC-3">
          <mxGeometry width="50" height="50" relative="1" as="geometry">
            <mxPoint x="670" y="810" as="sourcePoint" />
            <mxPoint x="720" y="760" as="targetPoint" />
          </mxGeometry>
        </mxCell>
      </root>
    </mxGraphModel>
  </diagram>
</mxfile>
